<svg width="25" height="24" fill="none" xmlns="http://www.w3.org/2000/svg"><path d="M19.61 11.718l5.103-5.032v-.001a.962.962 0 000-1.37L19.61.281a.983.983 0 00-1.381.003.962.962 0 00.003 1.369l3.426 3.378H.977A.972.972 0 000 6c0 .534.437.968.977.968h20.681l-3.426 3.378a.962.962 0 00-.003 1.369c.38.379.999.38 1.381.003zm-14.22.564L.287 17.314v.001a.962.962 0 000 1.37l5.103 5.033a.983.983 0 001.381-.003.962.962 0 00-.003-1.369l-3.426-3.378h20.681c.54 0 .977-.433.977-.968a.972.972 0 00-.977-.968H3.342l3.426-3.378a.962.962 0 00.003-1.369.983.983 0 00-1.381-.003z" fill="#8F8F8F"/></svg>