<svg width="200" height="45" fill="none" xmlns="http://www.w3.org/2000/svg"><path d="M46.509 40.165v-6.433h3.414v.796h-2.541v5.612l-.873.025zm7.274-6.391v1.173c.187-.442.502-.815.905-1.07.402-.255.873-.38 1.348-.358a2.67 2.67 0 011.234.225 2.69 2.69 0 011 .765c.518.685.79 1.527.77 2.388a4.394 4.394 0 01-.397 1.974 2.657 2.657 0 01-1.048 1.172 2.77 2.77 0 01-1.415.383 2.62 2.62 0 01-1.427-.346c-.406-.26-.74-.62-.97-1.045V45h-.849V33.774h.85zm4.288 3.129a3.547 3.547 0 00-.476-1.823 1.793 1.793 0 00-1.644-.778 1.877 1.877 0 00-1.626.815 3.252 3.252 0 00-.572 1.92c-.023.671.19 1.33.602 1.858a1.894 1.894 0 001.524.778 1.793 1.793 0 001.692-.833 3.761 3.761 0 00.5-1.937zm3.499-3.171h.958l1.806 5.017 1.674-5.017h.934l-3.3 9.622h-.916l1.132-3.244-2.288-6.378zm7.491 5.328l.573-.608c.189.325.45.602.764.808.327.198.703.301 1.084.297.386.002.763-.112 1.084-.328a1.072 1.072 0 00.494-.966c0-.783-.415-1.178-1.252-1.178h-.603v-.662h.542c.27-.01.53-.097.753-.25a.945.945 0 00.38-.862c0-.276-.106-.542-.296-.741a1.363 1.363 0 00-1.005-.316 2.934 2.934 0 00-.97.146 2.285 2.285 0 00-.867.826l-.512-.492a2.657 2.657 0 011.014-.9 2.63 2.63 0 011.323-.278 2.662 2.662 0 011.59.45 1.368 1.368 0 01.602 1.16c0 .704-.47 1.214-1.415 1.536 1.084.122 1.626.656 1.626 1.61a1.779 1.779 0 01-.723 1.391 2.999 2.999 0 01-2.24.56 2.995 2.995 0 01-1.976-1.204h.03zm7.275-2.042a3.542 3.542 0 01.452-1.755 3.376 3.376 0 011.245-1.279 3.338 3.338 0 011.718-.459c.913-.02 1.8.31 2.48.924a3.269 3.269 0 011.018 2.54 3.19 3.19 0 01-1.053 2.514 3.638 3.638 0 01-2.5.929 3.398 3.398 0 01-2.378-.9 3.172 3.172 0 01-.982-2.514zm5.98 0a2.639 2.639 0 00-.729-1.89 2.408 2.408 0 00-1.806-.746 2.315 2.315 0 00-1.753.783 2.752 2.752 0 00-.732 1.871c0 .695.262 1.364.732 1.871a2.247 2.247 0 001.656.76 2.66 2.66 0 001.843-.742 2.484 2.484 0 00.79-1.937v.03zm7.955-2.448H86.84v5.595h-.867v-6.433h5.19v6.408h-.89v-5.57zm9.678 2.412h-5.053a3.307 3.307 0 00.524 1.858 1.794 1.794 0 001.638.814c.892 0 1.604-.514 2.138-1.543l.807.45a4.906 4.906 0 01-1.054 1.336 2.765 2.765 0 01-1.855.535 2.797 2.797 0 01-2.33-1.027 3.665 3.665 0 01-.837-2.4 3.831 3.831 0 01.807-2.556 2.82 2.82 0 012.276-.942 3.05 3.05 0 011.5.364c.456.273.821.677 1.047 1.16.282.61.416 1.279.392 1.95zM98.9 36.24a2.283 2.283 0 00-.512-1.306 1.806 1.806 0 00-1.475-.553c-1.14 0-1.79.62-1.951 1.859H98.9zm4.746-2.466v1.173a2.327 2.327 0 012.247-1.428 2.669 2.669 0 012.234.99 3.78 3.78 0 01.777 2.388 4.387 4.387 0 01-.398 1.974 2.666 2.666 0 01-1.054 1.172 2.727 2.727 0 01-1.409.383 2.621 2.621 0 01-1.427-.346 2.812 2.812 0 01-.97-1.045V45h-.873V33.774h.873zm4.288 3.129a3.49 3.49 0 00-.482-1.823 1.795 1.795 0 00-1.638-.778 1.875 1.875 0 00-.916.198 1.9 1.9 0 00-.71.617 3.222 3.222 0 00-.602 1.92c-.02.67.193 1.328.602 1.858a1.894 1.894 0 001.53.778 1.795 1.795 0 001.686-.833 3.7 3.7 0 00.53-1.937zm9.654.079h-5.035c-.015.66.17 1.308.53 1.858a1.793 1.793 0 001.638.814c.885 0 1.602-.516 2.138-1.543l.807.45a5.01 5.01 0 01-1.054 1.336 2.777 2.777 0 01-1.855.535 2.808 2.808 0 01-2.336-1.027 3.66 3.66 0 01-.837-2.399 3.862 3.862 0 01.807-2.557 2.849 2.849 0 012.282-.942 2.988 2.988 0 011.493.364c.458.274.824.678 1.054 1.16.272.613.398 1.28.368 1.95zm-1.048-.741a2.37 2.37 0 00-.512-1.306 1.802 1.802 0 00-1.482-.553c-1.132 0-1.782.62-1.951 1.859h3.945zm3.757-2.509h2.168a3.12 3.12 0 011.626.346 1.332 1.332 0 01.542 1.215 1.352 1.352 0 01-1.204 1.452c.317.037.616.166.862.372a1.67 1.67 0 01.035 2.531c-.47.372-1.06.553-1.656.51h-2.348l-.025-6.426zm2.331.814h-1.457v1.822h1.457c.271.02.54-.053.765-.206a.837.837 0 00.313-.699.792.792 0 00-.048-.38.79.79 0 00-.217-.313 1.55 1.55 0 00-.813-.2v-.024zm-1.457 2.612v2.205h1.439a1.63 1.63 0 001.024-.267 1.144 1.144 0 00.307-.905c0-.687-.386-1.033-1.162-1.033h-1.608zm6.281-.14a3.547 3.547 0 01.457-1.755 3.29 3.29 0 011.235-1.276 3.289 3.289 0 011.728-.462 3.558 3.558 0 012.475.924 3.25 3.25 0 011.024 2.539c.02.471-.064.942-.246 1.377a3.175 3.175 0 01-.808 1.138 3.65 3.65 0 01-2.499.929 3.422 3.422 0 01-2.409-.9 3.197 3.197 0 01-.957-2.514zm5.986 0A2.68 2.68 0 00133.26 36a2.64 2.64 0 00-.551-.871 2.413 2.413 0 00-1.807-.747 2.333 2.333 0 00-1.758.783 2.745 2.745 0 00-.734 1.871c0 .695.262 1.364.734 1.871a2.243 2.243 0 001.656.76c.684 0 1.342-.265 1.837-.742a2.482 2.482 0 00.801-1.937v.03zm3.203 2.042l.603-.608c.194.317.457.585.771.783.325.198.698.301 1.077.298a1.93 1.93 0 001.09-.328 1.073 1.073 0 00.494-.966c0-.783-.421-1.178-1.252-1.178h-.603v-.663h.536c.271-.01.534-.096.759-.248a.947.947 0 00.38-.863 1.104 1.104 0 00-.295-.741 1.366 1.366 0 00-1.006-.316 2.937 2.937 0 00-.97.146 2.288 2.288 0 00-.867.826l-.512-.492a2.647 2.647 0 011.014-.902 2.616 2.616 0 011.323-.277 2.665 2.665 0 011.59.45 1.368 1.368 0 01.602 1.16c0 .705-.47 1.215-1.415 1.537 1.084.121 1.626.656 1.626 1.61a1.784 1.784 0 01-.723 1.39 3 3 0 01-2.24.561 2.994 2.994 0 01-1.975-1.204l-.007.024zm7.667 1.105v-6.433h.867v2.849l3.167-2.85h1.235l-3.415 2.862 3.644 3.547h-1.205l-3.42-3.31v3.31l-.873.025zm8.491.382v-6.815h.849v4.75l4.498-5.096v6.754h-.867v-4.586l-4.48 4.993z" fill="#C6C6C6"/><path d="M0 7.545h32.52v32.62h7.328V0H0v6.032" fill="#F39200"/><path d="M34.296 5.29S0 19.664 0 35.28v4.86h10.37S4.68 23.83 33.923 9.318l1.77-3.286-1.397-.741z" fill="#F39200"/><path d="M15.356 40.153s-2.36-14.087 9.094-22.045c0 0-4.95 14.044.138 22.045h-9.232zM0 15.217v9.209s5.36-9.24 19.747-14.154c0 0-15.182-1.22-19.747 4.945z" fill="#C6C6C6"/><path d="M46.479 15.927h-3.686v-4.063h12.044v4.051h-3.685v12.842h-4.685l.012-12.83zm10.069-4.063h7.063c4.758 0 6.1 3.328 6.1 5.643 0 2.314-1.366 5.673-6.1 5.673H61.24v5.577h-4.691V11.863zm4.69 7.599h1.332c2.077 0 2.294-1.215 2.294-1.956 0-.845-.289-1.926-2.294-1.926h-1.343l.012 3.882zm14.912-7.599h5.69l5.962 16.893h-5.028l-.934-2.922h-5.69l-.934 2.934h-5.028l5.962-16.905zm.933 10.253h3.824l-1.915-6.226-1.91 6.226zM89.14 11.864h4.69v6.074h5.697v-6.074h4.685v16.893h-4.685v-6.743H93.83v6.755h-4.69V11.864zm30.435 16.133a7.636 7.636 0 01-4.523 1.258c-4.974 0-8.563-3.53-8.563-8.936 0-5.643 3.95-8.93 8.497-8.93a8.23 8.23 0 014.589 1.355v4.896a5.242 5.242 0 00-1.76-1.46 5.197 5.197 0 00-2.209-.569c-2.583 0-4.281 2.078-4.281 4.86 0 2.558 1.601 4.562 4.281 4.562a5.602 5.602 0 003.969-1.822v4.786zm1.867-15.04a11.404 11.404 0 015.648-1.567c3.758 0 6.438 1.956 6.438 4.78a4.053 4.053 0 01-.764 2.357 3.995 3.995 0 01-1.988 1.458v.073c1.367.431 3.113 1.47 3.113 4.027 0 3.214-2.944 5.17-6.726 5.17-2.367 0-3.903-.462-6.582-2.515l1.939-3.134c1.204 1.13 2.8 1.931 4.071 1.931 2.005 0 2.463-1.16 2.463-1.859 0-.99-.693-1.761-2.704-1.761h-2.656v-3.372h2.656c2.132 0 2.487-.99 2.487-1.737 0-1.063-.958-1.688-2.409-1.688a5.793 5.793 0 00-3.372 1.16l-1.614-3.323zm18.903-1.093h5.697l5.956 16.893h-5.023l-.933-2.922h-5.697l-.927 2.922h-5.029l5.956-16.894zm.934 10.253h3.83l-1.915-6.226-1.915 6.226zm12.062-10.253h4.691v7.107l5.046-7.107h5.481l-6.366 8.182 6.534 8.71h-5.865l-4.854-7.289v7.29h-4.691l.024-16.894z" fill="#fff"/><path d="M174.376 11.864h5.691l5.962 16.893H181l-.933-2.922h-5.691l-.933 2.922h-5.029l5.962-16.894zm.933 10.253h3.824l-1.909-6.226-1.915 6.226zm11.581-9.16a11.368 11.368 0 015.649-1.567c3.751 0 6.431 1.956 6.431 4.78a4.042 4.042 0 01-.76 2.356 3.988 3.988 0 01-1.986 1.46v.072c1.361.431 3.108 1.47 3.108 4.027 0 3.214-2.945 5.17-6.721 5.17-2.373 0-3.902-.462-6.582-2.515l1.939-3.134c1.204 1.13 2.8 1.931 4.065 1.931 2.011 0 2.463-1.16 2.463-1.859 0-.99-.693-1.761-2.704-1.761h-2.656v-3.372h2.656c2.132 0 2.493-.99 2.493-1.737 0-1.063-.957-1.688-2.409-1.688a5.825 5.825 0 00-3.372 1.16l-1.614-3.323z" fill="#fff"/><path d="M175.52 33.81h-6.317v6.373h6.317V33.81zm12.237 0h-6.317v6.373h6.317V33.81z" fill="#C6C6C6"/><path d="M200 33.81h-6.317v6.373H200V33.81z" fill="#F39200"/></svg>