<svg width="50" height="32" viewBox="0 0 50 32" fill="none" xmlns="http://www.w3.org/2000/svg">
<path d="M46.4998 13.5659L45.205 8.32583C45.559 8.24975 45.8246 7.932 45.8246 7.55131V6.70643C45.8246 4.87203 44.3495 3.3797 42.5365 3.3797H36.6389V1.63699C36.6389 0.734313 35.9131 0 35.0209 0H4.9582C4.06602 0 3.34023 0.734313 3.34023 1.63699V16.0001C3.34023 16.4376 3.69072 16.7923 4.12314 16.7923C4.55547 16.7923 4.90605 16.4377 4.90605 16.0001V1.63699C4.90605 1.60784 4.92939 1.58423 4.9582 1.58423H35.0208C35.0496 1.58423 35.0729 1.60784 35.0729 1.63699V16.0003C35.0729 16.4378 35.4234 16.7925 35.8559 16.7925C36.2882 16.7925 36.6388 16.4379 36.6388 16.0003V15.1024H45.874C45.8748 15.1024 45.8754 15.1026 45.8761 15.1026C45.8769 15.1026 45.8775 15.1025 45.8782 15.1025C47.0146 15.1033 47.9796 15.858 48.311 16.8979H45.8767C45.4443 16.8979 45.0938 17.2525 45.0938 17.69V19.3797C45.0938 20.7483 46.1941 21.8616 47.5468 21.8616H48.4341V25.3467H46.387C45.7146 23.3822 43.8688 21.9671 41.7013 21.9671C39.5338 21.9671 37.6879 23.3822 37.0155 25.3467H36.6386V19.3796C36.6386 18.9422 36.2881 18.5875 35.8557 18.5875C35.4233 18.5875 35.0728 18.9421 35.0728 19.3796V25.3465H18.8298C18.1573 23.382 16.3115 21.9669 14.144 21.9669C11.9766 21.9669 10.1307 23.382 9.4583 25.3465H4.9582C4.92939 25.3465 4.90605 25.3229 4.90605 25.2938V23.5512H8.29854C8.73086 23.5512 9.08145 23.1966 9.08145 22.759C9.08145 22.3215 8.73096 21.9669 8.29854 21.9669H0.78291C0.350586 21.9669 0 22.3215 0 22.759C0 23.1966 0.350488 23.5512 0.78291 23.5512H3.34033V25.2938C3.34033 26.1964 4.06611 26.9308 4.9583 26.9308H9.18721C9.18701 26.9483 9.18584 26.9658 9.18584 26.9835C9.18584 29.7496 11.4102 32 14.144 32C16.8779 32 19.1022 29.7496 19.1022 26.9835C19.1022 26.9657 19.1011 26.9483 19.1009 26.9308H36.7444C36.7442 26.9483 36.7431 26.9658 36.7431 26.9835C36.7431 29.7496 38.9674 32 41.7013 32C44.4352 32 46.6595 29.7496 46.6595 26.9835C46.6595 26.9657 46.6583 26.9483 46.6581 26.9308H49.217C49.6493 26.9308 49.9999 26.5761 49.9999 26.1386V17.6898C50 15.6038 48.4788 13.8707 46.4998 13.5659ZM36.6389 4.96382H42.5365C43.4862 4.96382 44.2589 5.74556 44.2589 6.70643V6.75919H36.6389V4.96382ZM36.6389 13.5183V8.34332H43.5954L44.8741 13.5183H36.6389ZM14.144 30.4161C12.2734 30.4161 10.7516 28.8764 10.7516 26.9837C10.7516 25.091 12.2734 23.5514 14.144 23.5514C16.0147 23.5514 17.5365 25.091 17.5365 26.9837C17.5365 28.8764 16.0147 30.4161 14.144 30.4161ZM41.7015 30.4161C39.8309 30.4161 38.309 28.8764 38.309 26.9837C38.309 25.091 39.8309 23.5514 41.7015 23.5514C43.5721 23.5514 45.0939 25.091 45.0939 26.9837C45.0939 28.8764 43.5721 30.4161 41.7015 30.4161ZM48.4343 20.2774H47.547C47.0577 20.2774 46.6597 19.8747 46.6597 19.3796V18.4819H48.4342L48.4343 20.2774Z" fill="#203B7E"/>
<path d="M14.144 25.3467C13.2518 25.3467 12.526 26.0811 12.526 26.9837C12.526 27.8864 13.2518 28.6207 14.144 28.6207C15.0361 28.6207 15.7619 27.8864 15.7619 26.9837C15.7619 26.0811 15.0361 25.3467 14.144 25.3467Z" fill="#203B7E"/>
<path d="M41.7014 25.3467C40.8092 25.3467 40.0834 26.0811 40.0834 26.9837C40.0834 27.8864 40.8092 28.6207 41.7014 28.6207C42.5936 28.6207 43.3194 27.8864 43.3194 26.9837C43.3194 26.0811 42.5936 25.3467 41.7014 25.3467Z" fill="#203B7E"/>
<path d="M32.5156 21.9672H20.8246C20.3922 21.9672 20.0417 22.3219 20.0417 22.7594C20.0417 23.1969 20.3921 23.5515 20.8246 23.5515H32.5156C32.9479 23.5515 33.2985 23.1969 33.2985 22.7594C33.2985 22.3219 32.948 21.9672 32.5156 21.9672Z" fill="#203B7E"/>
<path d="M12.4739 18.5876H2.45298C2.02066 18.5876 1.67007 18.9423 1.67007 19.3798C1.67007 19.8173 2.02056 20.1719 2.45298 20.1719H12.4739C12.9062 20.1719 13.2568 19.8173 13.2568 19.3798C13.2568 18.9423 12.9062 18.5876 12.4739 18.5876Z" fill="#203B7E"/>
<path d="M27.2239 7.83596C26.9182 7.5267 26.4224 7.5267 26.1167 7.83606L19.1546 14.8799L15.5328 11.2156C15.2271 10.9062 14.7314 10.9062 14.4257 11.2156C14.1199 11.5249 14.1199 12.0263 14.4257 12.3357L18.6011 16.5602C18.7539 16.7149 18.9543 16.7922 19.1546 16.7922C19.3549 16.7922 19.5554 16.7149 19.7081 16.5602L27.2238 8.9562C27.5295 8.64675 27.5295 8.14532 27.2239 7.83596Z" fill="#203B7E"/>
</svg>
