<svg width="50" height="50" viewBox="0 0 50 50" fill="none" xmlns="http://www.w3.org/2000/svg">
<path d="M48.4863 42.0638H48.2262C48.3265 41.8062 48.3821 41.5264 48.3821 41.2337V23.3269C48.3821 22.0614 47.3526 21.0319 46.0872 21.0319H36.9013C37.0016 20.7743 37.0572 20.4945 37.0572 20.2019V2.29492C37.0572 1.02949 36.0277 0 34.7623 0H15.2376C13.9722 0 12.9427 1.02949 12.9427 2.29492V20.2019C12.9427 20.4945 12.9983 20.7743 13.0986 21.0319H3.91279C2.64736 21.0319 1.61787 22.0614 1.61787 23.3269V41.2338C1.61787 41.5265 1.67354 41.8063 1.77383 42.0639H1.51367C0.679004 42.0639 0 42.7429 0 43.5775V45.2507C0 46.0854 0.679004 46.7644 1.51367 46.7644H4.85352V48.4863C4.85352 49.321 5.53252 50 6.36719 50H11.2761C12.1107 50 12.7897 49.321 12.7897 48.4863V46.7644H37.2103V48.4863C37.2103 49.321 37.8893 50 38.7239 50H43.6328C44.4675 50 45.1465 49.321 45.1465 48.4863V46.7644H48.4863C49.321 46.7644 50 46.0854 50 45.2507V43.5775C50 42.7428 49.321 42.0638 48.4863 42.0638ZM46.9174 23.3269V41.2338C46.9174 41.6915 46.5449 42.0639 46.0873 42.0639H26.5625C26.1048 42.0639 25.7324 41.6915 25.7324 41.2338V23.3269C25.7324 22.8691 26.1048 22.4968 26.5625 22.4968H32.3567V27.4258C32.3567 27.9639 32.63 28.454 33.0877 28.7369C33.3369 28.8909 33.6164 28.9686 33.8972 28.9686C34.1321 28.9686 34.368 28.9141 34.5874 28.8044L36.2905 27.9528C36.312 27.9421 36.3375 27.9422 36.359 27.9528L38.0622 28.8044C38.5436 29.045 39.104 29.0197 39.5617 28.7369C40.0195 28.454 40.2927 27.9639 40.2927 27.4258V22.4968H46.087C46.5449 22.4968 46.9174 22.8691 46.9174 23.3269ZM43.6816 45.2995H6.31836V43.5287H43.6816V45.2995ZM38.8281 27.4257C38.8281 27.4374 38.8281 27.4684 38.7919 27.4908C38.7559 27.5131 38.7278 27.4993 38.7175 27.4941H38.7174L37.0143 26.6426C36.5828 26.4269 36.0674 26.4268 35.6355 26.6426L33.9324 27.4941C33.922 27.4993 33.8942 27.5132 33.8579 27.4907C33.8217 27.4684 33.8217 27.4374 33.8217 27.4257V22.4967H38.8281V27.4257ZM27.5032 1.46484V6.39385C27.5032 6.40557 27.5032 6.43652 27.467 6.45898C27.4309 6.48125 27.4029 6.46748 27.3926 6.46231H27.3925L25.6894 5.61074C25.2576 5.39482 24.7423 5.39492 24.3107 5.61074L22.6075 6.46231C22.5972 6.46758 22.5694 6.48145 22.5331 6.45898C22.4968 6.43652 22.4968 6.40557 22.4968 6.39385V1.46484H27.5032ZM14.4075 20.2019V2.29492C14.4075 1.83721 14.7799 1.46484 15.2376 1.46484H21.0319V6.39385C21.0319 6.93193 21.3052 7.42207 21.7629 7.70498C22.012 7.85889 22.2916 7.93662 22.5723 7.93662C22.8073 7.93652 23.0432 7.88213 23.2625 7.77246L24.9657 6.9209C24.9872 6.91016 25.0128 6.91025 25.0342 6.921L26.7375 7.77256H26.7374C27.2187 8.01328 27.7793 7.98799 28.237 7.70518C28.6948 7.42227 28.968 6.93213 28.968 6.39404V1.46484H34.7623C35.2199 1.46484 35.5924 1.83721 35.5924 2.29492V20.2019C35.5924 20.6596 35.2199 21.0319 34.7623 21.0319H15.2376C14.7799 21.0319 14.4075 20.6596 14.4075 20.2019ZM16.1783 22.4968V27.4258C16.1783 27.4375 16.1783 27.4684 16.142 27.4909C16.1058 27.5133 16.078 27.4994 16.0676 27.4942L14.3644 26.6427C13.9327 26.4268 13.4173 26.4269 12.9857 26.6427L11.2824 27.4943C11.2721 27.4995 11.2442 27.5133 11.208 27.491C11.1717 27.4686 11.1717 27.4376 11.1717 27.4259V22.4969L16.1783 22.4968ZM3.08271 41.2337V23.3269C3.08271 22.8691 3.45508 22.4968 3.91279 22.4968H9.70703V27.4258C9.70703 27.9639 9.98027 28.454 10.4381 28.7369C10.6872 28.8909 10.9668 28.9686 11.2475 28.9686C11.4825 28.9686 11.7184 28.9141 11.9377 28.8044L13.641 27.9527C13.6624 27.9421 13.6879 27.9421 13.7094 27.9527L15.4126 28.8043C15.8939 29.0449 16.4545 29.0196 16.9123 28.7368C17.37 28.4539 17.6433 27.9638 17.6433 27.4257V22.4967H23.4375C23.8952 22.4967 24.2676 22.869 24.2676 23.3268V41.2337C24.2676 41.6914 23.8952 42.0638 23.4375 42.0638H3.91279C3.45508 42.0638 3.08271 41.6914 3.08271 41.2337ZM1.46484 45.2507V43.5775C1.46484 43.5506 1.48672 43.5287 1.51367 43.5287H4.85352V45.2995H1.51367C1.48672 45.2995 1.46484 45.2776 1.46484 45.2507ZM11.3249 48.4863C11.3249 48.5133 11.303 48.5352 11.2761 48.5352H6.36719C6.34023 48.5352 6.31836 48.5133 6.31836 48.4863V46.7644H11.3249V48.4863ZM43.6816 48.4863C43.6816 48.5133 43.6597 48.5352 43.6328 48.5352H38.7239C38.6971 48.5352 38.6751 48.5133 38.6751 48.4863V46.7644H43.6816V48.4863ZM48.5352 45.2507C48.5352 45.2776 48.5132 45.2995 48.4863 45.2995H45.1465V43.5287H48.4863C48.5132 43.5287 48.5352 43.5506 48.5352 43.5775V45.2507Z" fill="#203B7E"/>
<path d="M20.1465 19.261C20.551 19.261 20.8789 18.9331 20.8789 18.5286C20.8789 18.1241 20.551 17.7962 20.1465 17.7962H16.9108C16.5063 17.7962 16.1784 18.1241 16.1784 18.5286C16.1784 18.9331 16.5063 19.261 16.9108 19.261H20.1465Z" fill="#203B7E"/>
<path d="M16.9107 16.0254H20.1465C20.551 16.0254 20.8789 15.6975 20.8789 15.293C20.8789 14.8885 20.551 14.5605 20.1465 14.5605H16.9108C16.5063 14.5605 16.1784 14.8885 16.1784 15.293C16.1783 15.6975 16.5063 16.0254 16.9107 16.0254Z" fill="#203B7E"/>
<path d="M25.7812 19.261H32.3079C33.1426 19.261 33.8216 18.582 33.8216 17.7474V12.8385C33.8216 12.0038 33.1426 11.3248 32.3079 11.3248H25.7812C24.9466 11.3248 24.2676 12.0038 24.2676 12.8385V17.7474C24.2676 18.582 24.9466 19.261 25.7812 19.261ZM25.7324 12.8386C25.7324 12.8116 25.7544 12.7897 25.7812 12.7897H32.3079C32.3348 12.7897 32.3567 12.8116 32.3567 12.8386V17.7475C32.3567 17.7744 32.3348 17.7963 32.3079 17.7963H25.7812C25.7544 17.7963 25.7324 17.7744 25.7324 17.7475V12.8386Z" fill="#203B7E"/>
<path d="M28.6401 16.0254H29.449C29.8536 16.0254 30.1814 15.6975 30.1814 15.293C30.1814 14.8885 29.8536 14.5605 29.449 14.5605H28.6401C28.2355 14.5605 27.9077 14.8885 27.9077 15.293C27.9077 15.6975 28.2356 16.0254 28.6401 16.0254Z" fill="#203B7E"/>
<path d="M8.82158 40.293C9.22607 40.293 9.554 39.965 9.554 39.5605C9.554 39.1561 9.22607 38.8281 8.82158 38.8281H5.58594C5.18145 38.8281 4.85352 39.1561 4.85352 39.5605C4.85352 39.965 5.18145 40.293 5.58594 40.293H8.82158Z" fill="#203B7E"/>
<path d="M5.58594 37.0573H8.82158C9.22607 37.0573 9.554 36.7294 9.554 36.3249C9.554 35.9204 9.22607 35.5925 8.82158 35.5925H5.58594C5.18145 35.5925 4.85352 35.9204 4.85352 36.3249C4.85352 36.7294 5.18145 37.0573 5.58594 37.0573Z" fill="#203B7E"/>
<path d="M14.4563 40.293H20.9831C21.8178 40.293 22.4968 39.614 22.4968 38.7793V33.8704C22.4968 33.0357 21.8178 32.3567 20.9831 32.3567H14.4563C13.6217 32.3567 12.9427 33.0357 12.9427 33.8704V38.7793C12.9427 39.614 13.6217 40.293 14.4563 40.293ZM14.4075 33.8704C14.4075 33.8435 14.4294 33.8216 14.4563 33.8216H20.9831C21.0101 33.8216 21.0319 33.8435 21.0319 33.8704V38.7793C21.0319 38.8063 21.0101 38.8281 20.9831 38.8281H14.4563C14.4294 38.8281 14.4075 38.8063 14.4075 38.7793V33.8704Z" fill="#203B7E"/>
<path d="M17.3152 37.0573H18.1242C18.5287 37.0573 18.8566 36.7294 18.8566 36.3249C18.8566 35.9204 18.5287 35.5925 18.1242 35.5925H17.3152C16.9107 35.5925 16.5828 35.9204 16.5828 36.3249C16.5828 36.7294 16.9107 37.0573 17.3152 37.0573Z" fill="#203B7E"/>
<path d="M31.4714 38.8281H28.2356C27.8311 38.8281 27.5032 39.1561 27.5032 39.5605C27.5032 39.965 27.8311 40.293 28.2356 40.293H31.4714C31.876 40.293 32.2038 39.965 32.2038 39.5605C32.2038 39.1561 31.8759 38.8281 31.4714 38.8281Z" fill="#203B7E"/>
<path d="M31.4714 35.5925H28.2356C27.8311 35.5925 27.5032 35.9204 27.5032 36.3249C27.5032 36.7294 27.8311 37.0573 28.2356 37.0573H31.4714C31.876 37.0573 32.2038 36.7294 32.2038 36.3249C32.2038 35.9204 31.8759 35.5925 31.4714 35.5925Z" fill="#203B7E"/>
<path d="M37.1062 32.3567C36.2715 32.3567 35.5925 33.0357 35.5925 33.8704V38.7793C35.5925 39.614 36.2715 40.293 37.1062 40.293H43.6328C44.4675 40.293 45.1465 39.614 45.1465 38.7793V33.8704C45.1465 33.0357 44.4675 32.3567 43.6328 32.3567H37.1062ZM43.6816 33.8704V38.7793C43.6816 38.8063 43.6597 38.8281 43.6328 38.8281H37.1062C37.0793 38.8281 37.0573 38.8063 37.0573 38.7793V33.8704C37.0573 33.8435 37.0793 33.8216 37.1062 33.8216H43.6328C43.6597 33.8216 43.6816 33.8436 43.6816 33.8704Z" fill="#203B7E"/>
<path d="M40.7739 35.5925H39.965C39.5605 35.5925 39.2326 35.9204 39.2326 36.3249C39.2326 36.7294 39.5605 37.0573 39.965 37.0573H40.7739C41.1785 37.0573 41.5063 36.7294 41.5063 36.3249C41.5063 35.9204 41.1785 35.5925 40.7739 35.5925Z" fill="#203B7E"/>
</svg>
