<svg width="50" height="50" viewBox="0 0 50 50" fill="none" xmlns="http://www.w3.org/2000/svg">
<path d="M27.5 9.16667V4.16667C27.5 3.94565 27.4122 3.73369 27.2559 3.57741C27.0996 3.42113 26.8877 3.33333 26.6667 3.33333H8.33333C8.11232 3.33333 7.90036 3.42113 7.74408 3.57741C7.5878 3.73369 7.5 3.94565 7.5 4.16667V9.16667C7.5 9.38768 7.5878 9.59964 7.74408 9.75592C7.90036 9.9122 8.11232 10 8.33333 10H26.6667C26.8877 10 27.0996 9.9122 27.2559 9.75592C27.4122 9.59964 27.5 9.38768 27.5 9.16667ZM25.8333 8.33333H9.16667V5H25.8333V8.33333Z" fill="#203B7E"/>
<path d="M4.16667 13.3333V23.3333C4.16667 23.5543 4.25446 23.7663 4.41074 23.9226C4.56702 24.0789 4.77899 24.1667 5 24.1667H15C15.221 24.1667 15.433 24.0789 15.5893 23.9226C15.7455 23.7663 15.8333 23.5543 15.8333 23.3333V18.535L14.1667 20.2017V22.5H5.83333V14.1667H13.1317L14.7983 12.5H5C4.77899 12.5 4.56702 12.5878 4.41074 12.7441C4.25446 12.9004 4.16667 13.1123 4.16667 13.3333Z" fill="#203B7E"/>
<path d="M16.9108 12.7442L10.8333 18.8217L8.9225 16.9108L7.74417 18.0892L10.2442 20.5892C10.4004 20.7454 10.6124 20.8332 10.8333 20.8332C11.0543 20.8332 11.2662 20.7454 11.4225 20.5892L18.0892 13.9225L16.9108 12.7442Z" fill="#203B7E"/>
<path d="M4.16667 37.5C4.16667 37.721 4.25446 37.933 4.41074 38.0893C4.56702 38.2455 4.77899 38.3333 5 38.3333H15C15.221 38.3333 15.433 38.2455 15.5893 38.0893C15.7455 37.933 15.8333 37.721 15.8333 37.5V32.7017L14.1667 34.3683V36.6667H5.83333V28.3333H13.1317L14.7983 26.6667H5C4.77899 26.6667 4.56702 26.7545 4.41074 26.9107C4.25446 27.067 4.16667 27.279 4.16667 27.5V37.5Z" fill="#203B7E"/>
<path d="M8.9225 31.0775L7.74417 32.2558L10.2442 34.7558C10.4004 34.9121 10.6124 34.9998 10.8333 34.9998C11.0543 34.9998 11.2662 34.9121 11.4225 34.7558L18.0892 28.0892L16.9108 26.9108L10.8333 32.9883L8.9225 31.0775Z" fill="#203B7E"/>
<path d="M20 18.3333H30.8333V20H20V18.3333Z" fill="#203B7E"/>
<path d="M20 14.1667H30.8333V15.8333H20V14.1667Z" fill="#203B7E"/>
<path d="M20 28.3333H25V30H20V28.3333Z" fill="#203B7E"/>
<path d="M20 32.5H25V34.1667H20V32.5Z" fill="#203B7E"/>
<path d="M1.66667 48.3333V1.66667H33.3333V19.4633C33.8956 19.2667 34.4511 19.0519 35 18.8192V0.833333C35 0.61232 34.9122 0.400358 34.7559 0.244078C34.5996 0.0877973 34.3877 0 34.1667 0H0.833333C0.61232 0 0.400358 0.0877973 0.244078 0.244078C0.0877973 0.400358 0 0.61232 0 0.833333V49.1667C0 49.3877 0.0877973 49.5996 0.244078 49.7559C0.400358 49.9122 0.61232 50 0.833333 50H34.1667C34.2544 49.9966 34.3411 49.9791 34.4233 49.9483C33.6368 49.462 32.8845 48.9224 32.1717 48.3333H1.66667Z" fill="#203B7E"/>
<path d="M49.2575 22.505C45.5723 22.1055 41.9973 21.0055 38.725 19.2642C38.6044 19.2 38.4699 19.1664 38.3333 19.1664C38.1967 19.1664 38.0622 19.2 37.9417 19.2642C34.6693 21.0055 31.0944 22.1055 27.4092 22.505C27.2051 22.5274 27.0165 22.6243 26.8795 22.7771C26.7425 22.93 26.6667 23.1281 26.6667 23.3333V33.2042C26.6897 36.8028 27.7801 40.3137 29.7998 43.2922C31.8196 46.2707 34.6778 48.5829 38.0125 49.9358C38.1142 49.9782 38.2232 50.0001 38.3333 50.0001C38.4435 50.0001 38.5525 49.9782 38.6542 49.9358C41.9889 48.5829 44.8471 46.2707 46.8668 43.2922C48.8866 40.3137 49.977 36.8028 50 33.2042V23.3333C50 23.1281 49.9242 22.93 49.7872 22.7771C49.6502 22.6243 49.4616 22.5274 49.2575 22.505ZM48.3333 33.2042C48.3111 36.4143 47.3532 39.5483 45.5771 42.2224C43.801 44.8965 41.2836 46.9947 38.3333 48.26C35.383 46.9947 32.8657 44.8965 31.0896 42.2224C29.3134 39.5483 28.3556 36.4143 28.3333 33.2042V24.0708C31.8213 23.6076 35.2037 22.5489 38.3333 20.9408C41.4629 22.549 44.8454 23.6077 48.3333 24.0708V33.2042Z" fill="#203B7E"/>
<path d="M31.4225 32.7442L30.2442 33.9225L35.2442 38.9225C35.4004 39.0787 35.6124 39.1665 35.8333 39.1665C36.0543 39.1665 36.2662 39.0787 36.4225 38.9225L46.4225 28.9225L45.2442 27.7442L35.8333 37.155L31.4225 32.7442Z" fill="#203B7E"/>
<path d="M19.1667 44.1667H25V45.8333H19.1667V44.1667Z" fill="#203B7E"/>
<path d="M11.6667 40.8333H25V42.5H11.6667V40.8333Z" fill="#203B7E"/>
</svg>
