<svg width="50" height="50" viewBox="0 0 50 50" fill="none" xmlns="http://www.w3.org/2000/svg">
<path d="M44.5257 10.8455C45.5568 6.85597 45.1044 3.75422 43.207 1.8568C41.8103 0.460096 39.7823 -0.153254 37.1786 0.0323681C34.8741 0.197168 32.2222 0.984068 29.2943 2.36826C28.2275 2.22536 27.1524 2.15355 26.076 2.15329C19.7314 2.15329 13.6465 4.6737 9.16018 9.16006C4.67382 13.6464 2.15341 19.7312 2.15341 26.0759C2.15367 27.1522 2.22548 28.2274 2.36838 29.2942C0.983968 32.222 0.197621 34.874 0.0324889 37.1785C-0.153576 39.7818 0.460217 41.8101 1.85692 43.2068C3.09215 44.4421 4.83762 45.0652 7.00693 45.0652C8.30396 45.0466 9.59352 44.8651 10.8453 44.525C15.4346 48.3135 21.271 50.2556 27.2152 49.9722C33.1594 49.6888 38.7846 47.2002 42.9926 42.9923C47.2006 38.7844 49.6893 33.1593 49.9728 27.2151C50.2564 21.2709 48.3141 15.4348 44.5257 10.8455ZM37.3046 1.79998C39.3723 1.65235 40.9365 2.09282 41.9536 3.10986C42.8618 4.01803 43.7193 5.80115 43.0713 9.24181C43.0445 9.21467 43.0185 9.18709 42.9916 9.16007C40.0521 6.20688 36.3884 4.07774 32.3672 2.98582C34.1766 2.30834 35.8523 1.90376 37.3046 1.79998ZM22.3419 4.24175L21.667 7.27716C21.6194 7.49115 21.6529 7.71517 21.7609 7.90592C21.8689 8.09668 22.0438 8.24062 22.2517 8.30993L27.1476 9.94199L27.8936 12.1792C27.9559 12.3661 28.0787 12.5269 28.2426 12.6362L30.3812 14.0619L29.7257 16.6841L24.2866 20.5692L22.1579 19.15L18.6334 16.5069C18.4628 16.3789 18.2518 16.3168 18.039 16.3319C17.8263 16.347 17.6261 16.4383 17.4753 16.5892L14.8172 19.2472C14.735 19.3295 14.6697 19.4272 14.6252 19.5347C14.5806 19.6422 14.5577 19.7574 14.5577 19.8738V23.9368L13.1733 25.3212L8.9121 27.0257C8.7457 27.0923 8.6034 27.2078 8.50398 27.3569L6.73193 30.015C6.63508 30.1604 6.58344 30.3313 6.58352 30.506V34.4931L5.8304 35.058C4.57139 32.2311 3.9223 29.1705 3.92545 26.0759C3.92545 15.1346 11.8998 6.02211 22.3419 4.24175ZM3.10998 41.9538C2.09294 40.9369 1.65225 39.3727 1.80011 37.3048C1.90388 35.8525 2.30846 34.1765 2.98594 32.3675C4.07786 36.3886 6.207 40.0523 9.16019 42.9918C9.18721 43.0188 9.2149 43.0448 9.24204 43.0716C5.80117 43.7194 4.01827 42.862 3.10998 41.9538ZM14.3252 39.6345L12.9646 37.5942L14.36 35.501L15.9684 33.8926L18.9239 32.4148L21.1542 33.9016C21.2998 33.9986 21.4709 34.0503 21.6459 34.0501H23.051L24.2355 35.2352C21.3817 37.4898 18.5033 39.3552 15.7761 40.7237L14.3252 39.6345ZM25.4959 36.4947L26.336 37.3347C26.4442 37.4429 26.5787 37.5212 26.7262 37.5619C26.8737 37.6027 27.0293 37.6045 27.1777 37.5673L29.9258 36.8806L30.4582 38.4802L29.8056 40.4378L27.5684 41.1838C27.3919 41.2425 27.2384 41.3553 27.1295 41.5062C27.0207 41.657 26.9621 41.8383 26.9621 42.0243V44.2083L24.6985 45.7173C24.5152 45.8395 24.384 46.0256 24.3305 46.2394L23.861 48.1157C22.7412 48.0044 21.6317 47.8073 20.542 47.5263L19.8651 42.7848C19.8349 42.5737 19.7295 42.3805 19.5684 42.2409C19.4072 42.1012 19.2011 42.0243 18.9879 42.0243H17.5112L17.3485 41.9025C20.0023 40.4959 22.7664 38.6637 25.4959 36.4947ZM16.6842 43.6192C16.8376 43.7342 17.0241 43.7964 17.2158 43.7964H18.2193L18.6698 46.9515C16.6119 46.2184 14.6739 45.1846 12.9189 43.8837C13.7828 43.5744 14.668 43.2087 15.5744 42.7864L16.6842 43.6192ZM25.6613 48.2212L25.9664 47.0017L28.3396 45.4196C28.461 45.3387 28.5605 45.229 28.6293 45.1005C28.6981 44.9719 28.7341 44.8283 28.7341 44.6824V42.6629L30.7864 41.9788C30.9168 41.9353 31.0354 41.862 31.1326 41.7648C31.2299 41.6675 31.3032 41.549 31.3467 41.4185L32.2327 38.7604C32.2934 38.5786 32.2934 38.3819 32.2327 38.2L31.3467 35.542C31.2761 35.3302 31.1282 35.1529 30.9325 35.0455C30.7368 34.9381 30.5078 34.9085 30.2913 34.9626L27.2339 35.7268L26.8745 35.3674C27.7014 34.6723 28.522 33.9488 29.3362 33.1967L28.1321 31.8964C27.3015 32.6656 26.4631 33.4036 25.617 34.1105L24.0443 32.5378C23.8782 32.3716 23.6529 32.2782 23.418 32.2781H21.9142L19.4794 30.6549C19.3494 30.5682 19.1988 30.5174 19.0429 30.5077C18.887 30.498 18.7313 30.5297 18.5916 30.5995L15.0475 32.3716C14.9623 32.4142 14.8845 32.4703 14.8172 32.5377L13.0452 34.3097C13.0039 34.351 12.9668 34.3962 12.9344 34.4447L11.1624 37.1028C11.0653 37.2484 11.0135 37.4194 11.0135 37.5943C11.0135 37.7693 11.0653 37.9403 11.1624 38.0858L12.9344 40.7439C12.9902 40.8274 13.0597 40.9009 13.1401 40.9611L13.9552 41.5725C13.0868 41.9487 12.1987 42.2777 11.2947 42.5582C9.41824 40.8746 7.8409 38.8849 6.62982 36.6738L8.00116 35.645C8.1112 35.5624 8.20052 35.4554 8.26203 35.3324C8.32355 35.2094 8.35557 35.0737 8.35557 34.9362V30.7743L9.82615 28.5684L14.0008 26.8986C14.1122 26.854 14.2134 26.7873 14.2982 26.7024L16.0703 24.9304C16.1526 24.8481 16.2178 24.7504 16.2623 24.6429C16.3069 24.5354 16.3298 24.4202 16.3298 24.3039V20.2407L18.1849 18.3856L21.1143 20.5826C21.1274 20.5924 21.1407 20.6018 21.1544 20.6109L23.8125 22.383C23.9621 22.4827 24.1385 22.5346 24.3183 22.5317C24.498 22.5288 24.6727 22.4713 24.819 22.3668L31.0212 17.9367C31.1925 17.8143 31.3147 17.6348 31.3657 17.4305L32.2517 13.8865C32.2961 13.7091 32.2846 13.5224 32.2187 13.3519C32.1528 13.1813 32.0358 13.0354 31.8837 12.934L29.4786 11.3305L28.6886 8.96038C28.6451 8.82991 28.5718 8.71136 28.4746 8.61411C28.3773 8.51686 28.2588 8.44358 28.1283 8.40008L23.5703 6.88155L24.2097 4.00474C24.8253 3.95313 25.4474 3.92533 26.076 3.92533C29.1872 3.92429 32.2636 4.58015 35.1039 5.85002C37.9441 7.11989 40.4843 8.97514 42.5581 11.2944C41.8763 13.5228 40.7491 15.9548 39.2023 18.5318L40.7216 19.4437C42.0928 17.1589 43.1517 14.9719 43.8842 12.9192C46.0171 15.793 47.418 19.1429 47.966 22.6795L45.1049 24.4347C44.9072 24.556 44.7649 24.75 44.7087 24.975L43.0545 31.5914L38.2002 33.2096C38.0238 33.2684 37.8703 33.3812 37.7616 33.5321C37.6529 33.6829 37.5944 33.8642 37.5943 34.0501V38.9992L36.0818 40.5118C35.9444 40.6492 35.8559 40.828 35.8301 41.0207C35.8043 41.2133 35.8426 41.4091 35.939 41.5779L37.8108 44.8541C34.2953 47.062 30.2273 48.2311 26.076 48.2265C25.9374 48.2265 25.7992 48.2237 25.6613 48.2212ZM39.2787 43.8509L37.8134 41.2863L39.1069 39.9928C39.1892 39.9105 39.2544 39.8128 39.299 39.7053C39.3435 39.5978 39.3664 39.4826 39.3664 39.3663V34.6887L44.0767 33.1186C44.2181 33.0714 44.3453 32.9894 44.4466 32.88C44.5479 32.7707 44.6199 32.6375 44.6561 32.4929L46.3404 25.7558L48.1781 24.6285C48.2091 25.1072 48.2266 25.5895 48.2266 26.0759C48.2264 29.5316 47.4169 32.9392 45.8631 36.0258C44.3093 39.1124 42.0543 41.7923 39.2787 43.8509Z" fill="#203B7E"/>
<path d="M42.0244 29.6201V22.5319C42.0245 22.3394 41.9618 22.1521 41.8459 21.9984C41.73 21.8447 41.5672 21.7329 41.3821 21.68L35.1799 19.9079C35.0207 19.8623 34.8518 19.8623 34.6926 19.9079L28.4904 21.68C28.3054 21.7329 28.1425 21.8447 28.0266 21.9984C27.9107 22.1521 27.8481 22.3394 27.8481 22.5319V29.6201C27.8481 29.8126 27.9107 29.9998 28.0266 30.1535C28.1425 30.3072 28.3054 30.419 28.4904 30.472L34.6926 32.244C34.8518 32.2896 35.0207 32.2896 35.1799 32.244L41.3821 30.472C41.5672 30.419 41.73 30.3072 41.8459 30.1535C41.9618 29.9998 42.0245 29.8126 42.0244 29.6201ZM34.9363 21.6813L37.9132 22.5319L34.9363 23.3825L31.9593 22.5319L34.9363 21.6813ZM29.6201 23.7065L34.0502 24.9723V30.2175L29.6201 28.9518V23.7065ZM35.8223 30.2175V24.9723L40.2524 23.7065V28.9518L35.8223 30.2175Z" fill="#203B7E"/>
<path d="M25.19 14.5576H26.962V16.3297H25.19V14.5576Z" fill="#203B7E"/>
<path d="M13.6717 11.0135H15.4437V12.7856H13.6717V11.0135Z" fill="#203B7E"/>
<path d="M9.24158 21.6458H11.0136V23.4179H9.24158V21.6458Z" fill="#203B7E"/>
<path d="M17.2158 34.9362H18.9878V36.7082H17.2158V34.9362Z" fill="#203B7E"/>
<path d="M22.5319 41.1383H24.304V42.9104H22.5319V41.1383Z" fill="#203B7E"/>
<path d="M41.1384 35.8222H42.9105V37.5942H41.1384V35.8222Z" fill="#203B7E"/>
</svg>
