<svg width="50" height="32" fill="none" xmlns="http://www.w3.org/2000/svg"><path d="M46.5 13.566l-1.295-5.24a.79.79 0 00.62-.775v-.845c0-1.834-1.476-3.326-3.289-3.326H36.64V1.637A1.63 1.63 0 0035.02 0H4.958A1.63 1.63 0 003.34 1.637V16c0 .438.35.792.783.792A.788.788 0 004.906 16V1.637c0-.03.023-.053.052-.053h30.063c.029 0 .052.024.052.053V16c0 .438.35.793.783.793a.788.788 0 00.783-.793v-.898h9.239a2.565 2.565 0 012.433 1.796h-2.434a.788.788 0 00-.783.792v1.69c0 1.368 1.1 2.482 2.453 2.482h.887v3.485h-2.047c-.672-1.965-2.518-3.38-4.686-3.38-2.167 0-4.013 1.415-4.685 3.38h-.377V19.38a.788.788 0 00-.783-.793.788.788 0 00-.783.793v5.966H18.83c-.673-1.964-2.518-3.38-4.686-3.38-2.167 0-4.013 1.416-4.686 3.38h-4.5a.052.052 0 01-.052-.052V23.55h3.393a.788.788 0 00.782-.792.788.788 0 00-.782-.792H.783a.788.788 0 00-.783.792c0 .438.35.792.783.792H3.34v1.743a1.63 1.63 0 001.618 1.637h4.23l-.002.052C9.186 29.75 11.41 32 14.144 32s4.958-2.25 4.958-5.017l-.001-.052h17.643v.052C36.743 29.75 38.966 32 41.7 32s4.959-2.25 4.959-5.017l-.002-.052h2.559a.788.788 0 00.783-.792v-8.45c0-2.085-1.521-3.818-3.5-4.123zm-9.861-8.602h5.897c.95 0 1.723.782 1.723 1.742v.053h-7.62V4.964zm0 8.554V8.343h6.956l1.28 5.175h-8.236zM14.144 30.416c-1.87 0-3.392-1.54-3.392-3.432 0-1.893 1.521-3.433 3.392-3.433 1.87 0 3.393 1.54 3.393 3.433 0 1.892-1.522 3.432-3.393 3.432zm27.558 0c-1.871 0-3.393-1.54-3.393-3.432 0-1.893 1.522-3.433 3.393-3.433 1.87 0 3.392 1.54 3.392 3.433 0 1.892-1.522 3.432-3.392 3.432zm6.732-10.139h-.887a.894.894 0 01-.887-.897v-.898h1.774v1.795z" fill="#203B7E"/><path d="M14.144 25.347a1.63 1.63 0 00-1.618 1.637 1.63 1.63 0 001.618 1.637 1.63 1.63 0 001.618-1.637 1.63 1.63 0 00-1.618-1.637zm27.557 0a1.63 1.63 0 00-1.618 1.637 1.63 1.63 0 001.618 1.637 1.63 1.63 0 001.618-1.637 1.63 1.63 0 00-1.618-1.637zm-9.185-3.38H20.825a.788.788 0 00-.783.792c0 .438.35.793.783.793h11.69a.788.788 0 00.783-.793.788.788 0 00-.782-.792zm-20.042-3.379H2.453a.788.788 0 00-.783.792c0 .437.35.792.783.792h10.02a.788.788 0 00.784-.792.788.788 0 00-.783-.792zm14.75-10.752a.777.777 0 00-1.107 0l-6.962 7.044-3.622-3.664a.776.776 0 00-1.107 0 .798.798 0 000 1.12L18.6 16.56a.775.775 0 001.107 0l7.516-7.604a.799.799 0 000-1.12z" fill="#203B7E"/></svg>