<svg width="50" height="50" fill="none" xmlns="http://www.w3.org/2000/svg"><path d="M48.486 42.064h-.26c.1-.258.156-.538.156-.83V23.327a2.298 2.298 0 00-2.295-2.295h-9.186c.1-.258.156-.538.156-.83V2.295A2.298 2.298 0 0034.762 0H15.238a2.298 2.298 0 00-2.295 2.295v17.907c0 .292.055.572.156.83H3.913a2.298 2.298 0 00-2.295 2.295v17.907c0 .292.056.572.156.83h-.26c-.835 0-1.514.679-1.514 1.514v1.673c0 .834.679 1.513 1.514 1.513h3.34v1.722c0 .835.679 1.514 1.513 1.514h4.91c.834 0 1.513-.679 1.513-1.514v-1.722h24.42v1.722c0 .835.68 1.514 1.514 1.514h4.909c.834 0 1.514-.679 1.514-1.514v-1.722h3.34c.834 0 1.513-.679 1.513-1.513v-1.673c0-.835-.679-1.514-1.514-1.514zm-1.569-18.737v17.907c0 .457-.372.83-.83.83H26.562a.831.831 0 01-.83-.83V23.327c0-.458.373-.83.83-.83h5.795v4.929c0 .538.273 1.028.73 1.31a1.537 1.537 0 001.5.068l1.703-.851a.077.077 0 01.069 0l1.703.851a1.531 1.531 0 001.5-.067 1.53 1.53 0 00.73-1.311v-4.93h5.795c.458 0 .83.373.83.83zM43.682 45.3H6.318v-1.771h37.364v1.77zm-4.854-17.874c0 .011 0 .042-.036.065a.07.07 0 01-.075.003l-1.703-.851a1.55 1.55 0 00-1.379 0l-1.703.851c-.01.005-.038.02-.074-.003s-.036-.054-.036-.065v-4.93h5.006v4.93zM27.503 1.465v4.929c0 .012 0 .043-.036.065a.07.07 0 01-.074.003l-1.704-.851a1.549 1.549 0 00-1.378 0l-1.703.851a.07.07 0 01-.075-.003c-.036-.022-.036-.053-.036-.065v-4.93h5.006zM14.408 20.202V2.295a.83.83 0 01.83-.83h5.794v4.929c0 .538.273 1.028.73 1.311a1.537 1.537 0 001.5.067l1.704-.851a.077.077 0 01.068 0l1.704.852c.48.24 1.041.215 1.499-.068.458-.283.731-.773.731-1.311v-4.93h5.794c.458 0 .83.373.83.83v17.908a.83.83 0 01-.83.83H15.238a.831.831 0 01-.83-.83zm1.77 2.295v4.929c0 .012 0 .042-.036.065a.07.07 0 01-.074.003l-1.704-.851a1.549 1.549 0 00-1.378 0l-1.704.851a.07.07 0 01-.074-.003c-.036-.022-.036-.053-.036-.065v-4.93h5.006zM3.083 41.234V23.327a.83.83 0 01.83-.83h5.794v4.929c0 .538.273 1.028.731 1.31a1.537 1.537 0 001.5.068l1.703-.851a.078.078 0 01.068 0l1.704.851c.48.24 1.041.216 1.5-.067.457-.283.73-.773.73-1.311v-4.93h5.794c.458 0 .83.373.83.83v17.908c0 .457-.372.83-.83.83H3.913a.831.831 0 01-.83-.83zM1.465 45.25v-1.673a.05.05 0 01.049-.05h3.34V45.3h-3.34a.049.049 0 01-.05-.05zm9.86 3.235a.049.049 0 01-.049.05H6.367a.049.049 0 01-.049-.05v-1.722h5.007v1.722zm32.357 0a.049.049 0 01-.05.05h-4.908a.049.049 0 01-.049-.05v-1.722h5.007v1.722zm4.853-3.235a.049.049 0 01-.049.049h-3.34v-1.771h3.34a.05.05 0 01.05.048v1.674z" fill="#203B7E"/><path d="M20.146 19.261a.732.732 0 100-1.465h-3.235a.732.732 0 100 1.465h3.235zm-3.236-3.236h3.236a.732.732 0 100-1.464h-3.235a.732.732 0 000 1.464zm8.871 3.236h6.527c.835 0 1.514-.679 1.514-1.514v-4.909c0-.834-.68-1.513-1.514-1.513H25.78c-.834 0-1.513.679-1.513 1.514v4.908c0 .835.679 1.514 1.513 1.514zm-.049-6.422a.05.05 0 01.05-.05h6.526a.05.05 0 01.049.05v4.908a.049.049 0 01-.05.05h-6.526a.049.049 0 01-.049-.05V12.84z" fill="#203B7E"/><path d="M28.64 16.025h.809a.732.732 0 100-1.464h-.809a.732.732 0 000 1.464zM8.822 40.293a.733.733 0 000-1.465H5.586a.732.732 0 000 1.465h3.236zm-3.236-3.236h3.236a.732.732 0 100-1.465H5.586a.732.732 0 100 1.465zm8.87 3.236h6.527c.835 0 1.514-.679 1.514-1.514V33.87c0-.834-.68-1.513-1.514-1.513h-6.527c-.834 0-1.513.679-1.513 1.513v4.91c0 .834.679 1.513 1.513 1.513zm-.048-6.423c0-.026.021-.048.048-.048h6.527c.027 0 .049.021.049.048v4.91a.049.049 0 01-.049.048h-6.527a.049.049 0 01-.048-.049V33.87z" fill="#203B7E"/><path d="M17.315 37.057h.81a.732.732 0 100-1.465h-.81a.732.732 0 100 1.465zm14.156 1.771h-3.235a.732.732 0 000 1.465h3.235a.732.732 0 000-1.465zm0-3.235h-3.235a.732.732 0 100 1.464h3.235a.732.732 0 100-1.465zm5.635-3.236c-.834 0-1.514.679-1.514 1.513v4.91c0 .834.68 1.513 1.514 1.513h6.527c.834 0 1.514-.679 1.514-1.514V33.87c0-.834-.68-1.513-1.514-1.513h-6.527zm6.576 1.513v4.91a.049.049 0 01-.05.048h-6.526a.049.049 0 01-.049-.049V33.87a.05.05 0 01.05-.048h6.526c.027 0 .049.022.049.048z" fill="#203B7E"/><path d="M40.774 35.593h-.809a.732.732 0 100 1.464h.809a.732.732 0 100-1.465z" fill="#203B7E"/></svg>