<svg width="50" height="50" fill="none" xmlns="http://www.w3.org/2000/svg"><path d="M44.526 10.845c1.03-3.989.578-7.09-1.319-8.988C41.81.46 39.782-.153 37.179.032c-2.305.165-4.957.952-7.885 2.336A23.923 23.923 0 002.368 29.294C.984 32.222.198 34.874.032 37.18c-.186 2.603.428 4.631 1.825 6.028 1.235 1.235 2.98 1.858 5.15 1.858 1.297-.018 2.587-.2 3.838-.54a23.924 23.924 0 0033.68-33.68zM37.305 1.8c2.067-.148 3.632.293 4.649 1.31.908.908 1.765 2.691 1.117 6.132-.026-.027-.052-.055-.08-.082a23.784 23.784 0 00-10.624-6.174c1.81-.678 3.485-1.082 4.938-1.186zM22.342 4.242l-.675 3.035a.886.886 0 00.585 1.033l4.896 1.632.746 2.237a.886.886 0 00.349.457l2.138 1.426-.655 2.622-5.44 3.885-2.128-1.419-3.525-2.643a.886.886 0 00-1.158.082l-2.658 2.658a.887.887 0 00-.26.627v4.063l-1.384 1.384-4.26 1.705a.886.886 0 00-.409.33l-1.772 2.659a.885.885 0 00-.148.491v3.987l-.754.565a22.023 22.023 0 01-1.905-8.982c0-10.941 7.975-20.054 18.417-21.834zM3.11 41.954c-1.017-1.017-1.458-2.581-1.31-4.65.104-1.452.508-3.128 1.186-4.937A23.785 23.785 0 009.16 42.992l.082.08c-3.44.647-5.224-.21-6.132-1.118zm11.215-2.32l-1.36-2.04 1.395-2.093 1.608-1.608 2.956-1.478 2.23 1.487a.885.885 0 00.492.148h1.405l1.184 1.185c-2.853 2.255-5.732 4.12-8.459 5.489l-1.45-1.09zm11.17-3.14l.841.84a.885.885 0 00.842.233l2.748-.686.532 1.6-.652 1.957-2.238.746a.886.886 0 00-.606.84v2.184l-2.264 1.51a.886.886 0 00-.367.521l-.47 1.877a22.01 22.01 0 01-3.319-.59l-.677-4.741a.886.886 0 00-.877-.76H17.51l-.162-.122c2.653-1.407 5.417-3.24 8.147-5.408zm-8.81 7.125c.153.115.34.177.53.177h1.004l.45 3.156a22.126 22.126 0 01-5.75-3.068c.864-.31 1.749-.675 2.655-1.098l1.11.833zm8.976 4.602l.305-1.22 2.374-1.581a.886.886 0 00.394-.738v-2.02l2.052-.683a.886.886 0 00.56-.56l.887-2.659a.885.885 0 000-.56l-.886-2.658a.886.886 0 00-1.056-.58l-3.057.765-.36-.36a70.202 70.202 0 002.462-2.17l-1.204-1.3a65.538 65.538 0 01-2.515 2.214l-1.573-1.573a.886.886 0 00-.626-.26h-1.504l-2.435-1.623a.886.886 0 00-.887-.056l-3.544 1.773a.884.884 0 00-.23.166l-1.773 1.772a.89.89 0 00-.11.135l-1.773 2.658a.886.886 0 000 .983l1.772 2.658a.887.887 0 00.206.217l.815.611c-.868.377-1.756.706-2.66.986a22.295 22.295 0 01-4.665-5.884L8 35.645a.887.887 0 00.355-.709v-4.162l1.47-2.206L14 26.898a.885.885 0 00.297-.196l1.772-1.772a.885.885 0 00.26-.626V20.24l1.855-1.855 2.93 2.197c.012.01.026.019.04.028l2.657 1.772a.886.886 0 001.007-.016l6.202-4.43a.886.886 0 00.345-.507l.886-3.543a.886.886 0 00-.368-.953l-2.405-1.603-.79-2.37a.887.887 0 00-.56-.56L23.57 6.88l.64-2.876a22.1 22.1 0 0118.348 7.29c-.682 2.228-1.809 4.66-3.356 7.237l1.52.912c1.37-2.285 2.43-4.472 3.162-6.525a22.04 22.04 0 014.082 9.76l-2.861 1.756a.886.886 0 00-.396.54l-1.655 6.616-4.854 1.62a.886.886 0 00-.606.84V39l-1.512 1.512a.886.886 0 00-.143 1.066l1.872 3.276a22.018 22.018 0 01-11.735 3.373c-.139 0-.277-.003-.415-.006zm13.618-4.37l-1.466-2.565 1.294-1.293a.887.887 0 00.26-.627V34.69l4.71-1.57a.887.887 0 00.58-.626l1.683-6.737 1.838-1.128a22.131 22.131 0 01-8.9 19.222z" fill="#203B7E"/><path d="M42.024 29.62v-7.088a.885.885 0 00-.642-.852l-6.202-1.772a.885.885 0 00-.487 0L28.49 21.68a.886.886 0 00-.642.852v7.088a.886.886 0 00.642.852l6.203 1.772a.877.877 0 00.487 0l6.202-1.772a.886.886 0 00.642-.852zm-7.088-7.939l2.977.85-2.977.852-2.977-.851 2.977-.85zm-5.316 2.025l4.43 1.266v5.245l-4.43-1.265v-5.246zm6.202 6.512v-5.246l4.43-1.266v5.246l-4.43 1.265zM25.19 14.558h1.772v1.772H25.19v-1.772zm-11.518-3.544h1.772v1.772h-1.772v-1.772zm-4.43 10.632h1.772v1.772H9.242v-1.772zm7.974 13.29h1.772v1.772h-1.772v-1.772zm5.316 6.202h1.772v1.772h-1.772v-1.772zm18.606-5.316h1.773v1.772h-1.773v-1.772z" fill="#203B7E"/></svg>