<svg width="50" height="50" fill="none" xmlns="http://www.w3.org/2000/svg"><path d="M27.5 9.167v-5a.833.833 0 00-.833-.834H8.333a.833.833 0 00-.833.834v5a.833.833 0 00.833.833h18.334a.833.833 0 00.833-.833zm-1.667-.834H9.167V5h16.666v3.333zm-21.666 5v10a.833.833 0 00.833.834h10a.833.833 0 00.833-.834v-4.798l-1.666 1.667V22.5H5.833v-8.333h7.299l1.666-1.667H5a.833.833 0 00-.833.833z" fill="#203B7E"/><path d="M16.91 12.744l-6.077 6.078-1.91-1.911-1.179 1.178 2.5 2.5a.833.833 0 001.178 0l6.667-6.666-1.178-1.179zM4.167 37.5a.833.833 0 00.833.833h10a.834.834 0 00.833-.833v-4.798l-1.666 1.666v2.299H5.833v-8.334h7.299l1.666-1.666H5a.834.834 0 00-.833.833v10z" fill="#203B7E"/><path d="M8.922 31.078l-1.178 1.178 2.5 2.5a.833.833 0 001.178 0l6.667-6.667-1.178-1.178-6.078 6.077-1.91-1.91zM20 18.333h10.833V20H20v-1.667zm0-4.166h10.833v1.666H20v-1.666zm0 14.166h5V30h-5v-1.667zm0 4.167h5v1.667h-5V32.5z" fill="#203B7E"/><path d="M1.667 48.333V1.667h31.666v17.796A27.648 27.648 0 0035 18.82V.833A.833.833 0 0034.167 0H.833A.833.833 0 000 .833v48.334A.833.833 0 00.833 50h33.334a.822.822 0 00.256-.052 20.257 20.257 0 01-2.251-1.615H1.667z" fill="#203B7E"/><path d="M49.258 22.505c-3.686-.4-7.26-1.5-10.533-3.24a.834.834 0 00-.783 0 29.097 29.097 0 01-10.533 3.24.834.834 0 00-.742.828v9.871a18.182 18.182 0 0011.346 16.732.834.834 0 00.641 0A18.181 18.181 0 0050 33.204v-9.87a.834.834 0 00-.742-.829zm-.925 10.7a16.506 16.506 0 01-10 15.055 16.506 16.506 0 01-10-15.056v-9.133a30.732 30.732 0 0010-3.13 30.728 30.728 0 0010 3.13v9.133z" fill="#203B7E"/><path d="M31.422 32.744l-1.178 1.178 5 5a.833.833 0 001.178 0l10-10-1.178-1.178-9.41 9.411-4.412-4.41zM19.167 44.167H25v1.666h-5.833v-1.666zm-7.5-3.334H25V42.5H11.667v-1.667z" fill="#203B7E"/></svg>