<?xml version="1.0" standalone="no"?>
<!DOCTYPE svg PUBLIC "-//W3C//DTD SVG 20010904//EN"
 "http://www.w3.org/TR/2001/REC-SVG-20010904/DTD/svg10.dtd">
<svg version="1.0" xmlns="http://www.w3.org/2000/svg"
 width="103.000000pt" height="103.000000pt" viewBox="0 0 103.000000 103.000000"
 preserveAspectRatio="xMidYMid meet">
<metadata>
Created by potrace 1.11, written by Peter Selinger 2001-2013
</metadata>
<g transform="translate(0.000000,103.000000) scale(0.100000,-0.100000)"
fill="#000000" stroke="none">
<path d="M0 935 l0 -95 28 -1 c15 0 184 0 375 -1 l349 0 -126 -68 c-122 -67
-300 -183 -361 -235 -141 -122 -223 -226 -250 -319 -8 -27 -15 -86 -15 -131
l0 -82 128 1 127 1 2 85 c3 152 64 279 203 419 112 112 369 285 371 249 0 -7
1 -180 1 -384 l0 -371 94 0 94 0 0 514 0 513 -510 0 -510 0 0 -95z"/>
<path d="M245 754 c-38 -7 -85 -17 -103 -23 -49 -15 -120 -59 -132 -81 -5 -10
-10 -69 -10 -130 l0 -112 39 49 c80 101 230 211 374 273 42 19 77 35 77 37 0
9 -181 -1 -245 -13z"/>
<path d="M551 500 c-104 -106 -157 -240 -160 -406 l-2 -91 120 0 120 0 -16 31
c-53 100 -53 321 -2 484 6 18 9 36 6 39 -3 3 -33 -23 -66 -57z"/>
</g>
</svg>
