<svg width="40" height="40" viewBox="0 0 40 40" fill="none" xmlns="http://www.w3.org/2000/svg">
<path d="M39.1667 40H0.833333C0.373333 40 0 39.6104 0 39.1304C0 38.6504 0.373333 38.2609 0.833333 38.2609H39.1667C39.6267 38.2609 40 38.6504 40 39.1304C40 39.6104 39.6267 40 39.1667 40Z" fill="#203B7E"/>
<path d="M6.66667 26.087C3.91 26.087 1.66667 23.7461 1.66667 20.8696C1.66667 17.993 3.91 15.6522 6.66667 15.6522C9.42333 15.6522 11.6667 17.993 11.6667 20.8696C11.6667 23.7461 9.42333 26.087 6.66667 26.087ZM6.66667 17.3913C4.82833 17.3913 3.33333 18.9513 3.33333 20.8696C3.33333 22.7878 4.82833 24.3478 6.66667 24.3478C8.505 24.3478 10 22.7878 10 20.8696C10 18.9513 8.505 17.3913 6.66667 17.3913Z" fill="#203B7E"/>
<path d="M20 13.913C17.2433 13.913 15 11.5722 15 8.69565C15 5.81913 17.2433 3.47826 20 3.47826C22.7567 3.47826 25 5.81913 25 8.69565C25 11.5722 22.7567 13.913 20 13.913ZM20 5.21739C18.1617 5.21739 16.6667 6.77739 16.6667 8.69565C16.6667 10.6139 18.1617 12.1739 20 12.1739C21.8383 12.1739 23.3333 10.6139 23.3333 8.69565C23.3333 6.77739 21.8383 5.21739 20 5.21739Z" fill="#203B7E"/>
<path d="M33.3333 10.4348C30.5767 10.4348 28.3333 8.09391 28.3333 5.21739C28.3333 2.34087 30.5767 0 33.3333 0C36.09 0 38.3333 2.34087 38.3333 5.21739C38.3333 8.09391 36.09 10.4348 33.3333 10.4348ZM33.3333 1.73913C31.495 1.73913 30 3.29913 30 5.21739C30 7.13565 31.495 8.69565 33.3333 8.69565C35.1717 8.69565 36.6667 7.13565 36.6667 5.21739C36.6667 3.29913 35.1717 1.73913 33.3333 1.73913Z" fill="#203B7E"/>
<path d="M33.3333 40C32.8733 40 32.5 39.6104 32.5 39.1304V14.7826C32.5 14.3026 32.8733 13.913 33.3333 13.913C33.7933 13.913 34.1667 14.3026 34.1667 14.7826V39.1304C34.1667 39.6104 33.7933 40 33.3333 40Z" fill="#203B7E"/>
<path d="M20 40C19.54 40 19.1667 39.6104 19.1667 39.1304V18.2609C19.1667 17.7809 19.54 17.3913 20 17.3913C20.46 17.3913 20.8333 17.7809 20.8333 18.2609V39.1304C20.8333 39.6104 20.46 40 20 40Z" fill="#203B7E"/>
<path d="M6.66667 40C6.20667 40 5.83333 39.6104 5.83333 39.1304V30.4348C5.83333 29.9548 6.20667 29.5652 6.66667 29.5652C7.12667 29.5652 7.5 29.9548 7.5 30.4348V39.1304C7.5 39.6104 7.12667 40 6.66667 40Z" fill="#203B7E"/>
<path d="M9.8 18.8696C9.56667 18.8696 9.33667 18.7687 9.17167 18.5722C8.86833 18.2104 8.905 17.6609 9.25167 17.3443L16.3183 10.9113C16.6633 10.5965 17.1917 10.6313 17.495 10.9948C17.7983 11.3565 17.7617 11.9061 17.415 12.2226L10.3483 18.6557C10.19 18.7983 9.995 18.8696 9.8 18.8696Z" fill="#203B7E"/>
<path d="M24.0333 8.50435C23.6583 8.50435 23.3167 8.24 23.225 7.84348C23.115 7.37565 23.3883 6.90609 23.8333 6.7913L29.1 5.43652C29.5567 5.31478 30 5.60522 30.1083 6.06956C30.2183 6.53739 29.945 7.00696 29.5 7.12174L24.2333 8.47652C24.165 8.49565 24.0983 8.50435 24.0333 8.50435Z" fill="#203B7E"/>
</svg>
