<svg width="40" height="42" viewBox="0 0 40 42" fill="none" xmlns="http://www.w3.org/2000/svg">
<path d="M35.9422 33.991H35.8542C35.8619 32.6603 35.8659 31.233 35.8496 31.0354C35.7736 30.1194 34.7809 29.7205 34.1439 30.5068C33.8314 30.8927 32.3862 33.5149 31.9507 34.3092C31.7262 34.7188 32.0211 35.2222 32.4863 35.2222H34.6226C34.62 35.5811 34.6172 35.9253 34.6146 36.236C34.6076 37.0528 35.8309 37.0677 35.8378 36.2466C35.8395 36.0555 35.8426 35.6835 35.846 35.2222H35.9422C36.2799 35.2222 36.5538 34.9466 36.5538 34.6066C36.5538 34.2666 36.28 33.991 35.9422 33.991ZM34.6307 33.991H33.5257C33.9382 33.2484 34.3407 32.5358 34.638 32.0251C34.6378 32.5539 34.6349 33.2592 34.6307 33.991Z" fill="#203B7E"/>
<path d="M30.5788 35.8016C30.5762 35.8016 30.5735 35.8016 30.571 35.8016C30.0055 35.8088 29.405 35.8134 28.9121 35.8141C30.053 34.2804 30.957 33.1206 30.957 32.2C30.957 31.079 30.0509 30.1672 28.9372 30.1672C27.9742 30.1672 27.1406 30.8567 26.9552 31.8067C26.8901 32.1403 27.1061 32.4639 27.4375 32.5294C27.7689 32.5949 28.0905 32.3776 28.1556 32.044C28.2286 31.67 28.5573 31.3984 28.9372 31.3984C29.3652 31.3984 29.7155 31.7398 29.7331 32.1664C29.7254 32.189 29.7421 32.5306 29.232 33.2638C28.3601 34.5175 27.8398 35.2031 27.5603 35.5715C27.2182 36.0224 27.0621 36.2281 27.1666 36.5702C27.2279 36.7708 27.3788 36.9247 27.5808 36.9925C27.8375 37.0785 29.805 37.0426 30.5865 37.0328C30.9242 37.0285 31.1946 36.7495 31.1904 36.4096C31.186 36.0721 30.9131 35.8016 30.5788 35.8016Z" fill="#203B7E"/>
<path d="M31.6201 25.1325C26.9995 25.1325 23.2403 28.9159 23.2403 33.5663C23.2403 38.2167 26.9995 42 31.6201 42C36.2408 42 40 38.2167 40 33.5663C40 28.9159 36.2408 25.1325 31.6201 25.1325ZM31.6201 40.7689C27.674 40.7689 24.4635 37.5378 24.4635 33.5663C24.4635 29.5947 27.674 26.3636 31.6201 26.3636C35.5663 26.3636 38.7767 29.5947 38.7767 33.5663C38.7767 37.5377 35.5663 40.7689 31.6201 40.7689Z" fill="#203B7E"/>
<path d="M23.6666 39.1382H20.2041L18.5523 29.7595L19.3105 28.4488C19.8688 28.6138 20.4804 28.4687 20.9106 28.0471C20.9127 28.0452 20.9147 28.043 20.9168 28.041L24.6138 24.3145C25.308 24.5063 25.9815 24.7693 26.6201 25.0982C26.9201 25.2526 27.2888 25.1341 27.4432 24.8306C27.5971 24.5279 27.4781 24.1571 27.1774 24.0022C26.3829 23.5929 25.5403 23.2752 24.6713 23.0569L23.0403 22.0505C22.5239 21.7317 21.8598 21.7368 21.3483 22.0635L21.1634 22.1815C20.8331 21.6972 20.9107 21.2965 20.9438 20.6529C21.2989 20.4227 21.6425 20.1609 21.9741 19.8675C22.5198 19.3847 22.9828 18.8132 23.3513 18.1792H24.5977C26.0093 18.1792 27.1578 17.0234 27.1578 15.6027V10.8169C27.1578 10.0141 26.6933 9.30497 26 8.97438V5.60011C26 4.08499 24.7752 2.85239 23.2698 2.85239H23.1984C23.1411 2.85239 23.0945 2.80547 23.0945 2.7478C23.0945 1.23268 21.8698 0 20.3643 0H13.6211C10.2878 0 7.57587 2.72934 7.57587 6.08418V8.97446C6.88265 9.30505 6.41805 10.0143 6.41805 10.817V13.2509C6.41805 14.3758 7.32735 15.2909 8.44498 15.2909H9.28695C9.49447 17.1046 10.3394 18.7611 11.6624 19.9118C11.9755 20.184 12.2988 20.4285 12.6321 20.6451C12.5953 21.2765 12.7424 21.7041 12.4128 22.1817L12.2276 22.0635C11.7161 21.7368 11.0519 21.7318 10.5356 22.0505L8.90517 23.0566C6.39686 23.687 4.13626 25.1561 2.53056 27.2018C0.8987 29.2808 0 31.8852 0 34.5353V37.0045C0 38.8598 1.49974 40.3692 3.34319 40.3692H23.6665C24.0043 40.3692 24.2781 40.0937 24.2781 39.7537C24.2782 39.4138 24.0043 39.1382 23.6666 39.1382ZM22.0035 23.1031C22.1236 23.0263 22.2796 23.0252 22.4008 23.1001L23.4485 23.7466L20.0547 27.1674C19.9027 27.3139 19.667 27.3222 19.5051 27.1862C18.9662 26.7332 18.1131 26.016 17.8231 25.7722C18.8771 25.0992 20.9553 23.7723 22.0035 23.1031ZM20.1306 22.8409L16.788 24.9751L13.4473 22.8422C13.9338 22.1065 13.8446 21.3832 13.8555 21.2966C14.7828 21.6884 15.7735 21.8895 16.8198 21.8969H16.8241C16.8273 21.8969 16.8304 21.8969 16.8336 21.8968C17.8526 21.8809 18.8173 21.6817 19.7206 21.302C19.7317 21.3888 19.6387 22.0902 20.1306 22.8409ZM18.289 27.7679L17.5593 29.0291H16.0168L15.2871 27.7679L16.7881 26.5061L18.289 27.7679ZM21.5932 17.954H19.9952C19.7238 17.954 19.503 17.7318 19.503 17.4586C19.503 17.1855 19.7238 16.9632 19.9952 16.9632H21.5932C21.8645 16.9632 22.0854 17.1855 22.0854 17.4586C22.0853 17.7318 21.8645 17.954 21.5932 17.954ZM25.9346 15.6028C25.9346 16.3446 25.3349 16.9482 24.5978 16.9482H23.9199C24.1073 16.4185 24.2364 15.8623 24.3021 15.291H25.1309C25.4163 15.291 25.688 15.2312 25.9346 15.1237V15.6028ZM25.8445 10.4451C25.9022 10.557 25.9346 10.6838 25.9346 10.8171V13.251C25.9346 13.697 25.5741 14.0598 25.1309 14.0598H24.3486V11.601C24.5297 11.5042 25.4277 11.4016 25.8445 10.4451ZM9.22737 14.0597H8.44506C8.00191 14.0597 7.6414 13.6969 7.6414 13.2509V10.817C7.6414 10.6838 7.67376 10.5569 7.73146 10.445C8.14862 11.4023 9.04895 11.5055 9.22737 11.6009V14.0597ZM9.2206 10.2948C8.96858 10.2065 8.79921 9.96671 8.79921 9.69806C8.79921 8.76758 8.79921 6.56291 8.79921 6.08418C8.79921 3.40815 10.9623 1.23112 13.6212 1.23112H20.3644C21.1953 1.23112 21.8713 1.91149 21.8713 2.7478C21.8713 3.48436 22.4666 4.08352 23.1985 4.08352H23.2699C24.1008 4.08352 24.7769 4.76388 24.7769 5.60011V9.69814C24.7769 9.96671 24.6076 10.2065 24.3555 10.2948C24.053 10.4009 23.3348 10.6527 23.0175 10.7639C22.9483 10.7882 22.8746 10.7381 22.8746 10.6613L22.8771 8.11469C22.885 6.21149 21.1235 4.68021 18.7659 5.44277C17.5316 5.84186 16.0208 5.83414 14.8101 5.44286C12.4735 4.68677 10.6909 6.18868 10.6989 8.11281L10.7018 10.6614C10.702 10.7365 10.6295 10.7885 10.559 10.7638C10.243 10.6531 9.52259 10.4007 9.2206 10.2948ZM12.4623 18.9803C10.3849 17.1736 10.4818 14.6277 10.4506 14.471V11.9931C10.4982 11.9982 10.5459 12.0008 10.5935 12.0008C11.3366 12.0008 11.9262 11.393 11.925 10.6599L11.9221 8.10961C11.9178 7.09103 12.8327 6.0964 14.4358 6.615C15.9243 7.0962 17.7028 7.07971 19.1401 6.61492C20.6409 6.1297 21.6584 6.98718 21.6537 8.11166L21.6512 10.6599C21.6502 11.4495 22.3302 12.0791 23.1252 11.9931V14.6318C23.1059 15.2015 23.0119 15.7578 22.8503 16.2852C22.5368 15.9452 22.0892 15.7321 21.593 15.7321H19.9951C19.0491 15.7321 18.2796 16.5067 18.2796 17.4587C18.2796 18.4107 19.0492 19.1852 19.9951 19.1852H20.8789C19.7094 20.1228 18.3523 20.6404 16.8213 20.6658C15.1618 20.6524 13.7032 20.0593 12.4623 18.9803ZM11.1751 23.1001C11.2964 23.0253 11.4523 23.0264 11.5724 23.1031C12.6379 23.7833 14.7029 25.1018 15.7529 25.7722C14.1071 27.1551 14.104 27.1584 14.0709 27.1862C13.9089 27.3222 13.6732 27.314 13.5213 27.1674L10.1275 23.7466L11.1751 23.1001ZM13.372 39.1382H7.31154V36.2491C7.31154 35.9091 7.03767 35.6336 6.69991 35.6336C6.36214 35.6336 6.08828 35.9091 6.08828 36.2491V39.1382H3.34327C2.17437 39.1382 1.22334 38.181 1.22334 37.0046V34.5354C1.22334 32.1611 2.02856 29.8277 3.49055 27.965C4.87797 26.1974 6.81092 24.9103 8.96215 24.3145L12.6592 28.0411C12.6613 28.0431 12.6633 28.0453 12.6654 28.0472C13.0947 28.4679 13.7059 28.6142 14.2655 28.4489L15.0237 29.7595L13.372 39.1382ZM14.6143 39.1382L16.1778 30.2603H17.3981L18.9616 39.1382H14.6143Z" fill="#203B7E"/>
</svg>
