<svg width="40" height="40" viewBox="0 0 40 40" fill="none" xmlns="http://www.w3.org/2000/svg">
<path d="M18.8459 29.6399C18.5451 29.4182 18.1217 29.483 17.9006 29.7852L17.8171 29.8993C17.5962 30.2013 17.6605 30.6258 17.961 30.848C18.0817 30.9374 18.2223 30.9805 18.3616 30.9805C18.5689 30.9805 18.7735 30.8851 18.906 30.7049L18.9908 30.5892C19.2118 30.2869 19.1469 29.8619 18.8459 29.6399Z" fill="#203B7E"/>
<path d="M19.0224 36.0999L17.2831 32.9244L18.907 30.7036C19.1282 30.4014 19.0633 29.9764 18.7622 29.7544C18.4611 29.5323 18.0379 29.5975 17.8168 29.8999L15.9373 32.4701C15.7815 32.6831 15.763 32.9676 15.8898 33.1992L17.8373 36.7544V36.7543C17.9605 36.979 18.1918 37.1062 18.4305 37.1062C18.5408 37.1061 18.6525 37.0791 18.7558 37.022C19.083 36.8414 19.2024 36.4285 19.0224 36.0999Z" fill="#203B7E"/>
<path d="M24.0629 32.4702L22.191 29.9104C22.0358 29.6982 21.7727 29.5951 21.5154 29.6462C21.2581 29.6969 21.0533 29.8926 20.9897 30.1479C20.9409 30.344 20.9816 30.5516 21.1008 30.7145L22.7167 32.9244L20.9893 36.0784C20.9344 36.1786 20.9056 36.2916 20.9056 36.406C20.9056 36.7159 21.1147 36.9866 21.4137 37.0637C21.4697 37.0782 21.5262 37.0852 21.5819 37.0852C21.824 37.0852 22.0535 36.954 22.1745 36.7334L24.1103 33.1995C24.2373 32.9677 24.2187 32.6832 24.0629 32.4702Z" fill="#203B7E"/>
<path d="M25.1345 21.7989C24.9121 21.6816 24.6432 21.6976 24.4362 21.8409C24.034 22.1191 23.6607 22.4139 23.3268 22.7169C21.5068 24.369 19.7776 24.1454 19.7099 24.1357C19.6691 24.1292 19.6276 24.1263 19.5866 24.1276C18.8673 24.1461 17.5704 23.4862 16.1985 22.4043C15.9886 22.2388 15.7735 22.0812 15.5586 21.9356C15.3515 21.795 15.0837 21.7808 14.8629 21.8987C14.6421 22.0165 14.504 22.2471 14.504 22.4983V24.8278C14.504 25.0338 14.5974 25.2285 14.7574 25.3574C14.7763 25.3727 14.796 25.3869 14.8163 25.3999L19.6117 28.6173C19.6125 28.6178 19.6132 28.6184 19.614 28.619L19.6266 28.6274C19.7395 28.7024 19.8696 28.7403 20.0001 28.7403C20.11 28.7403 20.2198 28.7136 20.3202 28.6597C20.3414 28.6483 20.3617 28.6358 20.3812 28.6225C20.3835 28.621 20.3858 28.6195 20.3881 28.618C20.3908 28.6162 20.3934 28.6144 20.3961 28.6126L25.1801 25.4028C25.1994 25.3905 25.2181 25.3774 25.2362 25.3632C25.4003 25.2346 25.4962 25.0371 25.4962 24.828V22.4001C25.4962 22.1477 25.357 21.9163 25.1345 21.7989ZM24.1436 24.4646L20.0001 27.2446L15.8566 24.4645V23.8469C16.8655 24.5831 18.3497 25.4861 19.5594 25.486C19.5619 25.486 19.5647 25.486 19.5673 25.486C19.9735 25.5311 22.0448 25.6537 24.1437 23.805V24.4646H24.1436Z" fill="#203B7E"/>
<path d="M20.6672 27.9498C20.6226 27.6805 20.4215 27.4642 20.157 27.4008C19.8923 27.3378 19.6159 27.4394 19.455 27.6595L17.9005 29.7854C17.6794 30.0878 17.7443 30.5128 18.0454 30.7347C18.166 30.8236 18.3061 30.8665 18.4451 30.8665C18.6531 30.8665 18.8583 30.7704 18.9909 30.5891L20.5372 28.4744C20.6252 28.3589 20.6765 28.2152 20.6765 28.0616C20.6764 28.0243 20.6733 27.9866 20.6672 27.9498Z" fill="#203B7E"/>
<path d="M30.3033 6.05837C30.2898 5.952 29.973 3.65627 27.8209 2.75063C27.8834 2.34743 27.8768 1.82923 27.6219 1.32507C27.2792 0.647475 26.603 0.205915 25.612 0.0124726C25.5695 0.00415753 25.5264 0 25.483 0H16.4059C12.7201 0 9.72144 3.01083 9.72144 6.71181V10.2881C9.72144 11.2199 10.0378 12.1285 10.612 12.8464C10.8967 13.2024 11.2473 13.8241 11.3002 14.764C11.3208 15.131 11.6268 15.4145 11.9945 15.4043C12.3604 15.394 12.6517 15.0931 12.6517 14.7256V10.0629C13.1109 8.15596 14.6782 7.78484 14.9476 7.73472H17.8837C18.2291 7.73472 18.5687 7.68177 18.8933 7.57728C19.4516 7.39749 20.3373 7.06661 20.9822 6.82069C21.4136 6.65604 21.8912 6.65 22.3269 6.80375L25.4702 7.91169C27.0416 8.49374 27.3221 9.8789 27.3569 10.0965V15.6925C27.3569 16.0479 27.6298 16.3428 27.9827 16.3692C27.9999 16.3704 28.0168 16.3711 28.0337 16.3711C28.3654 16.3711 28.6518 16.127 28.702 15.7926C28.7047 15.7751 28.9747 14.0237 29.8455 12.6215C30.1484 12.1333 30.3087 11.5767 30.3087 11.0119V6.14411C30.3087 6.11548 30.3069 6.08685 30.3033 6.05837ZM28.956 11.0116C28.956 11.315 28.8708 11.6159 28.7094 11.8835V10.0501C28.7094 10.0255 28.708 10.0011 28.7054 9.97672C28.6948 9.87812 28.4153 7.551 25.9321 6.63509C25.9291 6.63399 25.926 6.6329 25.923 6.6318L22.7749 5.52213C22.42 5.39701 22.0487 5.33457 21.6776 5.33457C21.2785 5.33457 20.8797 5.40682 20.5018 5.55116C19.599 5.89552 18.8998 6.14898 18.4802 6.28406C18.2893 6.34548 18.0886 6.3767 17.8836 6.3767H14.8929C14.864 6.3767 14.8349 6.37858 14.8061 6.38227C14.6916 6.39717 11.9942 6.78233 11.3154 9.83733C11.3046 9.88588 11.2991 9.93546 11.2991 9.98519V11.3827C11.1518 11.041 11.0739 10.6678 11.0739 10.2882V6.71197C11.0739 3.75997 13.4658 1.35825 16.4058 1.35825H25.4148C25.7877 1.43803 26.241 1.60174 26.413 1.93482C26.6235 2.34249 26.3837 2.90383 26.3834 2.9043C26.2969 3.08904 26.298 3.30296 26.3859 3.48691C26.4738 3.67086 26.6396 3.80531 26.8373 3.85308C28.559 4.26923 28.9102 5.92729 28.9559 6.19549L28.956 11.0116Z" fill="#203B7E"/>
<path d="M28.7054 9.97672C28.6948 9.87812 28.4153 7.551 25.9321 6.63509C25.9291 6.63399 25.926 6.6329 25.923 6.6318L22.7749 5.52213C22.0382 5.26248 21.2311 5.27284 20.5018 5.551C19.599 5.89537 18.8998 6.1489 18.4802 6.28406C18.2893 6.34548 18.0886 6.37654 17.8836 6.37654H14.8929C14.864 6.37654 14.8349 6.37842 14.8061 6.38211C14.6916 6.39702 11.9942 6.78217 11.3154 9.83717C11.3046 9.88573 11.2991 9.9353 11.2991 9.98504V15.8225C11.2991 15.8275 11.2992 15.8326 11.2993 15.8376C11.3037 16.0403 11.4466 20.8291 14.7419 23.0192L14.759 23.0313C14.7731 23.0413 14.7872 23.0513 14.802 23.0613C14.9899 23.1887 15.1786 23.327 15.3631 23.4724C16.3231 24.2293 18.1322 25.486 19.5594 25.486C19.5621 25.486 19.5646 25.486 19.5673 25.486C19.6448 25.4946 19.7832 25.5061 19.9708 25.5061C20.7797 25.5061 22.5053 25.2933 24.2337 23.7244C24.5238 23.4612 24.85 23.2038 25.2036 22.9592L25.2541 22.9236C25.2706 22.9119 25.2871 22.9002 25.3041 22.8887C26.4034 22.1474 28.3071 20.2347 28.7068 15.7529C28.7086 15.7328 28.7095 15.7125 28.7095 15.6922V10.0501C28.7094 10.0256 28.708 10.0012 28.7054 9.97672ZM27.3568 15.6615C26.9883 19.7063 25.2719 21.2743 24.5499 21.7612C24.5243 21.7785 24.499 21.7964 24.4737 21.8143L24.4362 21.8408C24.0339 22.119 23.6606 22.4138 23.3267 22.7169C21.5135 24.3628 19.79 24.1469 19.7054 24.135C19.6661 24.1291 19.6263 24.1266 19.5865 24.1277C18.8672 24.1462 17.5704 23.4862 16.1984 22.4043C15.9886 22.2388 15.7734 22.0812 15.5589 21.9358L15.5422 21.924C15.526 21.9124 15.5098 21.9009 15.4908 21.8882C12.8315 20.1209 12.6575 15.9853 12.6517 15.8127V10.0628C13.1125 8.1489 14.6895 7.78202 14.9465 7.73464L17.8837 7.73472C18.2291 7.73472 18.5687 7.68177 18.8933 7.57728C19.4516 7.39749 20.3373 7.06661 20.9822 6.82069C21.4136 6.65604 21.8912 6.65 22.3269 6.80375L25.4702 7.91169C27.0416 8.49374 27.3221 9.87882 27.3569 10.0964V15.6615H27.3568Z" fill="#203B7E"/>
<path d="M20.6049 27.758C20.4995 27.5463 20.292 27.4051 20.0572 27.385C19.8229 27.3655 19.5943 27.469 19.4548 27.6598L17.8348 29.8752C17.614 30.1773 17.6785 30.602 17.9792 30.8241C18.0998 30.9132 18.2402 30.9563 18.3793 30.9563C18.5868 30.9563 18.7917 30.8607 18.9243 30.68L20.5444 28.4728C20.6301 28.356 20.6763 28.2068 20.6763 28.0619C20.6764 27.9565 20.6518 27.8523 20.6049 27.758Z" fill="#203B7E"/>
<path d="M20.6483 38.6913C20.3942 38.4245 19.9744 38.4103 19.7032 38.6595L19.5486 38.8015C19.3171 39.014 19.2615 39.3586 19.4145 39.6336L19.4193 39.6421C19.5226 39.828 19.7068 39.9544 19.9167 39.9837C19.9478 39.988 19.9789 39.9901 20.0098 39.9901C20.1879 39.9901 20.3603 39.9194 20.488 39.7912L20.6378 39.6406C20.8977 39.3797 20.9024 38.958 20.6483 38.6913Z" fill="#203B7E"/>
<path d="M20.4515 38.8015L20.2969 38.6595C20.0257 38.4104 19.6058 38.4246 19.3518 38.6913C19.0976 38.9582 19.1023 39.38 19.3623 39.6409L19.5123 39.7914C19.6401 39.9197 19.8124 39.9903 19.9904 39.9903C20.0222 39.9903 20.0542 39.9881 20.0861 39.9834C20.2968 39.9532 20.481 39.8251 20.5834 39.6378L20.5882 39.6293C20.738 39.3547 20.6816 39.0128 20.4515 38.8015Z" fill="#203B7E"/>
<path d="M20.4629 38.8121L20.4621 38.8113C20.3576 38.7133 20.2226 38.6486 20.0737 38.6323C19.8744 38.6104 19.6803 38.6782 19.5391 38.8102L19.5371 38.8121C19.4004 38.9373 19.3208 39.1134 19.3168 39.2992C19.3128 39.4851 19.3848 39.6643 19.516 39.7953L19.5231 39.8025C19.6551 39.9342 19.8275 40 20 40C20.1731 40 20.3461 39.9336 20.4781 39.8012L20.4852 39.7941C20.6158 39.6628 20.6874 39.4838 20.6831 39.2983C20.679 39.1128 20.5994 38.9372 20.4629 38.8121Z" fill="#203B7E"/>
<path d="M20.2194 27.4043C19.9394 27.3142 19.632 27.4186 19.4615 27.6594C19.2707 27.9291 19.3022 28.2966 19.5346 28.5311C19.6654 28.6631 19.839 28.7307 20.0139 28.7307C20.1497 28.7307 20.2863 28.6899 20.4041 28.6066C20.5841 28.4794 20.6912 28.2723 20.6912 28.0513V28.0496C20.6912 27.7541 20.4998 27.4941 20.2194 27.4043Z" fill="#203B7E"/>
<path d="M20.5496 27.6539L20.5438 27.646C20.3703 27.4102 20.0656 27.3131 19.7883 27.4048C19.5111 27.4965 19.3237 27.7566 19.3237 28.0497V28.0613C19.3237 28.3113 19.4635 28.5392 19.6829 28.6575C19.7822 28.7111 19.8919 28.7375 20.0015 28.7375C20.1336 28.7375 20.2655 28.6991 20.379 28.6236C20.5336 28.5208 20.6394 28.3588 20.6717 28.1755C20.704 27.9922 20.6598 27.8036 20.5496 27.6539Z" fill="#203B7E"/>
<path d="M28.0453 25.5207C27.9752 25.3347 27.8275 25.1889 27.6411 25.1219L25.048 24.1886C25.027 24.1811 25.0052 24.1743 24.9835 24.169C24.7984 24.1225 24.6023 24.1566 24.4437 24.2631L19.6392 27.4867C19.6379 27.4876 19.6365 27.4884 19.6352 27.4894L20.0125 28.0526L19.6268 27.4951C19.4858 27.5887 19.3849 27.7322 19.344 27.8967C19.3215 27.9871 19.3178 28.0815 19.333 28.1733C19.3504 28.2783 19.3922 28.3778 19.455 28.4637L22.9726 33.2739C23.1004 33.4488 23.3032 33.5511 23.5176 33.5511C23.5322 33.5511 23.547 33.5506 23.5618 33.5496C23.7922 33.5343 23.999 33.4024 24.1102 33.1992L28.0053 26.0884C28.1009 25.9141 28.1155 25.7065 28.0453 25.5207ZM23.4357 31.6125L20.9634 28.2316L24.912 25.5823L26.438 26.1317L23.4357 31.6125Z" fill="#203B7E"/>
<path d="M20.6664 27.9444C20.6346 27.7621 20.5301 27.6007 20.377 27.4975L15.5565 24.2632C15.403 24.1601 15.2139 24.1248 15.0336 24.165C15.006 24.1711 14.9788 24.1791 14.9522 24.1887L12.3591 25.122C12.1727 25.1891 12.025 25.3348 11.9549 25.5208C11.8848 25.7067 11.8993 25.9142 11.9948 26.0885L15.8898 33.1992C16.0011 33.4024 16.2079 33.5344 16.4383 33.5496C16.453 33.5506 16.4678 33.551 16.4825 33.551C16.6968 33.551 16.8996 33.4488 17.0276 33.2738L18.9072 30.7035C18.9086 30.7016 18.9101 30.6995 18.9116 30.6973L20.5453 28.4632C20.6544 28.314 20.6981 28.1267 20.6664 27.9444ZM17.817 29.8995C17.8154 29.9017 17.8138 29.9039 17.8122 29.9061L16.5643 31.6126L13.5619 26.1317L15.088 25.5824L19.0365 28.2317L17.817 29.8995Z" fill="#203B7E"/>
<path d="M39.9666 37.1129L39.0942 31.8232C38.8192 30.1562 37.6654 28.7635 36.0829 28.1888L27.6427 25.1227C27.3825 25.0283 27.0916 25.1023 26.9077 25.3096C26.7238 25.5169 26.6841 25.8158 26.8075 26.0644L28.5697 29.6127L26.8405 29.6395C26.6058 29.6431 26.3896 29.7687 26.2697 29.9713C26.1497 30.174 26.143 30.4246 26.2519 30.6335L26.9611 31.9932L19.703 38.6599C19.6956 38.6667 19.6883 38.6736 19.6812 38.6807L19.5314 38.8312C19.3191 39.0444 19.2722 39.3726 19.4163 39.6371L19.4216 39.6468C19.5403 39.8644 19.7678 39.9999 20.015 39.9999H37.5284C38.256 39.9999 38.943 39.6804 39.4134 39.1233C39.8838 38.5662 40.0855 37.8334 39.9666 37.1129ZM38.382 38.245C38.1688 38.4972 37.8577 38.6419 37.5285 38.6419H21.7264L28.2585 32.6422C28.4851 32.4342 28.5437 32.0992 28.4012 31.8262L27.9599 30.9803L29.6651 30.9539C29.8975 30.9504 30.1116 30.8272 30.2325 30.6278C30.3532 30.4284 30.3636 30.1808 30.2599 29.9719L28.7727 26.9772L35.6231 29.4657C36.7462 29.8736 37.565 30.862 37.7601 32.045L38.6325 37.3347V37.3348C38.6863 37.661 38.595 37.9927 38.382 38.245Z" fill="#203B7E"/>
<path d="M20.4688 38.8175L20.4609 38.8104C20.1933 38.5671 19.7822 38.5779 19.5275 38.835L19.5204 38.8422C19.3279 39.0367 19.2708 39.3285 19.3756 39.5817C19.4805 39.835 19.7269 40 20.0001 40H20.0149C20.2945 40 20.5454 39.8271 20.6458 39.5652C20.7465 39.3031 20.6762 39.006 20.4688 38.8175Z" fill="#203B7E"/>
<path d="M20.4476 38.7979C20.294 38.6592 20.0858 38.5984 19.8819 38.6333C19.6783 38.6679 19.5015 38.7942 19.4022 38.9761L19.3975 38.9846C19.2549 39.2456 19.2983 39.5694 19.5044 39.7834L19.5069 39.7859C19.6394 39.9234 19.8159 39.9928 19.9929 39.9928C20.1558 39.9928 20.3192 39.9339 20.4486 39.8153L20.4557 39.8088C20.5171 39.7527 20.5677 39.6854 20.6049 39.6107C20.7411 39.3375 20.6737 39.0022 20.4476 38.7979Z" fill="#203B7E"/>
<path d="M20.4768 38.8394L20.474 38.8365C20.4722 38.8347 20.4703 38.8328 20.4686 38.8311L20.3186 38.6806C20.3115 38.6735 20.3043 38.6665 20.2969 38.6599L13.0389 31.9932L13.7482 30.6335C13.8572 30.4247 13.8504 30.174 13.7304 29.9713C13.6104 29.7687 13.3943 29.6431 13.1596 29.6395L11.4303 29.6127L13.1925 26.0644C13.3159 25.8159 13.2761 25.5169 13.0922 25.3096C12.9084 25.1023 12.6172 25.0281 12.3572 25.1227L3.91713 28.1888C2.33463 28.7634 1.18072 30.1562 0.905799 31.8232L0.0333751 37.1129C-0.0854532 37.8337 0.116266 38.5664 0.586736 39.1234C1.05728 39.6804 1.74439 39.9999 2.47174 39.9999H20.0001C20.274 39.9999 20.5208 39.834 20.6251 39.5798C20.7296 39.3257 20.671 39.0333 20.4768 38.8394ZM2.47182 38.6419C2.14244 38.6419 1.83135 38.4972 1.61838 38.245C1.40541 37.9928 1.31416 37.661 1.36791 37.3347L2.24033 32.045C2.43541 30.8618 3.25424 29.8736 4.37729 29.4657L11.2277 26.9772L9.7405 29.9717C9.63675 30.1806 9.64707 30.4282 9.76793 30.6277C9.88863 30.8271 10.1029 30.9502 10.3353 30.9538L12.0405 30.9802L11.5993 31.8261C11.4568 32.0991 11.5154 32.4342 11.7418 32.6421L18.274 38.6419H2.47182Z" fill="#203B7E"/>
<path d="M22.3019 30.4768C22.3508 30.2806 22.3101 30.073 22.1909 29.9101L20.5451 27.6596C20.3722 27.423 20.0672 27.329 19.7895 27.4204C19.6396 27.4698 19.5161 27.5694 19.4339 27.6967L17.8182 29.8979C17.7951 29.9293 17.7745 29.963 17.7571 29.998C17.6464 30.2204 17.6655 30.4857 17.8069 30.6897L18.495 31.6818L17.762 36.3207C17.7385 36.4697 17.765 36.6222 17.8373 36.7544L19.4076 39.6208C19.5264 39.8379 19.7536 39.9726 20.0001 39.9726C20.2468 39.9726 20.4739 39.8379 20.5927 39.6208L22.1746 36.7331C22.2294 36.6329 22.2583 36.5203 22.2583 36.4059V36.4055C22.2583 36.3699 22.2554 36.3343 22.2499 36.2991L21.5203 31.6819L22.2009 30.7007C22.2476 30.6328 22.2821 30.5568 22.3019 30.4768ZM20.0001 37.8846L19.1341 36.3037L19.8735 31.6246C19.9009 31.4513 19.8604 31.2741 19.7605 31.1302L19.1938 30.313L20.0021 29.2118L20.8146 30.3229L20.2547 31.1302C20.1548 31.2741 20.1144 31.4513 20.1417 31.6246L20.8777 36.2824L20.0001 37.8846Z" fill="#203B7E"/>
</svg>
