<svg width="40" height="40" viewBox="0 0 40 40" fill="none" xmlns="http://www.w3.org/2000/svg">
<path d="M20 40C8.97143 40 0 31.0278 0 20C0 8.97223 8.97143 0 20 0C31.0286 0 40 8.97223 40 20C40 31.0278 31.0286 40 20 40ZM20 1.63264C9.87266 1.63264 1.63264 9.87185 1.63264 20C1.63264 30.1281 9.87266 38.3674 20 38.3674C30.1273 38.3674 38.3674 30.1281 38.3674 20C38.3674 9.87185 30.1273 1.63264 20 1.63264Z" fill="#203B7E"/>
<path d="M26.6727 19.1837H20.8164V13.3274C20.8164 12.8768 20.4515 12.5111 20 12.5111C19.5485 12.5111 19.1836 12.8768 19.1836 13.3274V19.1837H13.3273C12.8767 19.1837 12.511 19.5495 12.511 20.0001C12.511 20.4507 12.8767 20.8165 13.3273 20.8165H19.1836V26.672C19.1836 27.1234 19.5485 27.4883 20 27.4883C20.4515 27.4883 20.8164 27.1235 20.8164 26.672V20.8165H26.6727C27.1241 20.8165 27.489 20.4507 27.489 20.0001C27.489 19.5495 27.1241 19.1837 26.6727 19.1837Z" fill="#203B7E"/>
</svg>
