<svg width="40" height="40" viewBox="0 0 40 40" fill="none" xmlns="http://www.w3.org/2000/svg">
<g clip-path="url(#clip0)">
<path d="M30.2859 36.2512C30.0695 35.8782 29.5916 35.7512 29.2181 35.9676L29.1881 35.985C28.8149 36.2014 28.688 36.6795 28.9044 37.0527C29.0493 37.3025 29.3114 37.442 29.5808 37.442C29.7138 37.442 29.8488 37.4078 29.9721 37.3363L30.0022 37.3189C30.3753 37.1025 30.5023 36.6244 30.2859 36.2512Z" fill="#203B7E"/>
<path d="M37.3198 10.0072C34.6493 5.38176 30.3375 2.07325 25.1786 0.690903C20.0199 -0.69144 14.6315 0.0180128 10.0061 2.6884C5.38075 5.35879 2.07216 9.67067 0.689892 14.8295C-0.692374 19.9883 0.0170013 25.3768 2.68739 30.0022C5.08278 34.1511 8.88997 37.3043 13.4076 38.8807C15.5491 39.6279 17.7847 40.0008 20.0168 40.0008C22.4437 40.0008 24.8663 39.5597 27.1562 38.6797C27.559 38.5249 27.7599 38.0729 27.605 37.6702C27.4502 37.2675 26.9982 37.0663 26.5956 37.2214C20.5003 39.5641 13.9017 38.4997 8.97177 34.7992L9.67169 31.1457L10.009 31.0361C11.2834 30.6221 11.9834 29.2483 11.5695 27.9738L11.322 27.2122C11.2647 27.0359 11.265 26.8496 11.3228 26.6735C11.5399 26.0116 11.4623 25.2875 11.1099 24.6865C10.7575 24.0857 10.1633 23.6643 9.47966 23.5307L7.71638 23.1861L4.31419 20.5994C4.11036 20.4444 3.84356 20.3992 3.59997 20.4782L1.6081 21.1253C1.56583 20.4129 1.5652 19.7007 1.60536 18.9922C1.68395 19.0654 1.73513 19.1152 1.76661 19.1479C1.8056 19.2128 1.85388 19.2723 1.91044 19.3239C2.0731 19.472 2.22044 19.5392 2.52981 19.5392C2.81411 19.5391 3.23497 19.4825 3.92989 19.3798C4.58895 19.2824 5.24458 19.1726 5.25106 19.1715C5.5138 19.1275 5.73591 18.9525 5.84044 18.7076C5.94497 18.4626 5.91739 18.1813 5.76731 17.9611L4.80942 16.5561L6.18145 15.575C6.27286 15.5097 6.34911 15.4254 6.40497 15.3279L8.53177 11.615L9.38903 10.6964C10.265 9.75747 10.515 8.38379 10.0258 7.19661C9.73724 6.49637 9.23317 5.9134 8.6027 5.52051C9.28552 4.98372 10.0136 4.48809 10.7873 4.04145C13.6262 2.40239 16.7243 1.60809 19.7899 1.5777L18.3949 3.32762L13.2218 5.14114C13.0118 5.21473 12.843 5.37458 12.7582 5.58036L11.3135 9.08254C11.2109 9.33137 11.2435 9.61528 11.3998 9.83434L13.5098 12.79C13.2076 13.0657 12.9135 13.4672 12.5622 13.9658C12.4081 14.1845 12.2626 14.391 12.1621 14.5068C12.0747 14.6075 11.9872 14.706 11.9004 14.8035C11.4466 15.314 10.9774 15.8421 10.644 16.5474C9.91106 18.0989 10.0591 19.9022 11.0304 21.2536C11.9695 22.5602 13.5178 23.2244 15.1703 23.03C15.4395 22.9985 15.6905 22.9364 15.9334 22.8762C16.6032 22.7105 16.8154 22.694 17.0302 22.895C17.1347 22.9929 17.1443 23.0114 17.1422 23.3434C17.1408 23.5547 17.1391 23.8175 17.2119 24.1175C17.3286 24.5976 17.63 24.9294 17.8722 25.196C17.9926 25.3284 18.1172 25.4654 18.1555 25.5574C18.3992 26.1413 18.2931 26.4647 18.0606 27.1732C18.0407 27.2339 18.0204 27.2957 18 27.3592C17.6468 28.4525 18.1391 29.5371 18.5735 30.4938C18.7146 30.8045 18.8478 31.0978 18.935 31.357C19.6375 33.4413 20.164 33.9186 20.5866 34.1108C20.8079 34.2114 21.037 34.2556 21.2684 34.2555C22.3946 34.2554 23.5697 33.2098 24.1096 32.5469C24.4486 32.1307 24.5322 31.7139 24.5931 31.4094C24.6235 31.258 24.6474 31.1385 24.693 31.0604C24.7629 30.9408 24.8451 30.8482 24.9493 30.7308C25.1587 30.495 25.4194 30.2015 25.5883 29.6696C25.7165 29.2655 25.8097 29.1664 26.1184 28.8377C26.1722 28.7806 26.2294 28.7195 26.2909 28.6526C27.3315 27.5204 27.0635 26.6554 26.7797 25.7397C26.5408 24.9691 26.9586 24.4763 27.9686 23.5357C28.4064 23.128 28.859 22.7064 29.209 22.1999C29.3621 21.9782 29.8279 21.3037 29.5397 20.6352C29.2571 19.9797 28.5389 19.8696 27.9618 19.7811C27.734 19.7461 27.3896 19.6933 27.28 19.6217C26.7966 19.3057 26.5009 18.6461 26.2149 18.0082C26.1579 17.8813 26.1018 17.756 26.0448 17.6343C25.9433 17.4173 25.8418 17.1547 25.7343 16.8768C25.4501 16.1411 25.128 15.3073 24.5797 14.7261C24.0868 14.2038 23.1576 13.9522 22.3379 13.7302C22.0622 13.6556 21.8019 13.5851 21.6303 13.5218C21.4865 13.4686 21.3304 13.459 21.1815 13.494C20.7825 13.5875 20.5336 13.6906 20.3487 13.8387C20.2999 13.8779 20.1553 14.0064 20.0706 14.2129C19.7846 14.0757 19.3913 13.8136 19.1493 13.6522C19.1443 13.6489 19.1392 13.6455 19.1342 13.6422C19.2158 13.3157 19.1419 13.0538 19.0646 12.8902C18.6282 11.9671 17.1795 12.0393 16.8937 12.0636C16.7314 12.0772 16.526 12.0845 16.3087 12.0922C15.9675 12.1043 15.5903 12.1179 15.2171 12.1597L15.2363 12.1061C15.5196 11.3168 16.2733 10.7865 17.1119 10.7865H17.5561C17.9874 10.7865 18.3372 10.4367 18.3372 10.0054C18.3372 9.57403 17.9874 9.22418 17.5561 9.22418H17.1119C15.8669 9.22418 14.7268 9.87942 14.0879 10.9107L12.9226 9.27848L14.069 6.49965L19.124 4.72747C19.2625 4.67887 19.3847 4.59215 19.4764 4.47723L21.7235 1.65856C27.4652 2.20473 32.8699 5.42395 35.9669 10.7882C36.7918 12.217 37.4021 13.7212 37.8078 15.2597L37.4766 15.555C37.0443 15.9407 36.7911 16.494 36.7814 17.0729C36.7813 17.0793 36.7811 17.0855 36.7809 17.0918L36.2414 15.608C36.161 15.3866 36.0425 15.1836 35.8896 15.0046L34.9272 13.8778C34.554 13.441 34.0108 13.1906 33.4365 13.1906H32.2584C31.8402 13.1906 31.458 13.4197 31.2608 13.7882C31.0635 14.1568 31.0851 14.6019 31.317 14.9497L31.4362 15.1287C30.675 15.7833 29.7945 16.3072 28.857 16.6604L27.2422 13.5672V12.8772C27.2422 12.6637 27.1548 12.4594 27.0004 12.3122L25.5462 10.924C25.466 10.8474 25.3704 10.7888 25.2658 10.752L23.9568 10.292C23.5495 10.1487 23.1037 10.363 22.9608 10.77C22.8177 11.1771 23.0317 11.6229 23.4387 11.766L24.589 12.1703L25.6798 13.2115V13.759C25.6798 13.8848 25.7103 14.0089 25.7686 14.1205L27.7902 17.9929C27.972 18.3414 28.3847 18.5006 28.7529 18.3643L29.3416 18.1473C30.7092 17.6429 31.9768 16.8316 33.0074 15.8011C33.2707 15.5378 33.3116 15.1254 33.105 14.8154L33.0634 14.753H33.4365C33.5531 14.753 33.6635 14.8039 33.7393 14.8926L34.7017 16.0194C34.7327 16.0557 34.7567 16.0968 34.7731 16.1419L35.8352 19.0625C35.9265 19.3134 36.1396 19.5003 36.4 19.5581C36.4563 19.5705 36.5129 19.5766 36.5693 19.5766C36.7742 19.5766 36.9736 19.4959 37.1216 19.3478L37.6272 18.8422C37.9473 18.522 38.1677 18.1168 38.273 17.6677C39.0549 23.9337 36.5979 30.4156 31.4047 34.4917C31.0652 34.758 31.006 35.249 31.2725 35.5885C31.5388 35.9279 32.0297 35.9872 32.3693 35.7207C36.1186 32.7779 38.6944 28.5689 39.6222 23.869C40.5586 19.1238 39.741 14.2007 37.3198 10.0072ZM3.69388 22.0905L6.9152 24.5398C7.01044 24.6122 7.12091 24.6618 7.23825 24.6847L9.17981 25.064C9.42763 25.1125 9.63435 25.259 9.76208 25.4768C9.88981 25.6946 9.91669 25.9465 9.8381 26.1864C9.67638 26.6797 9.6756 27.2013 9.83599 27.6948L10.0835 28.4564C10.2314 28.9115 9.98122 29.4022 9.52614 29.5501L8.74981 29.8024C8.47895 29.8904 8.27755 30.1188 8.22403 30.3983L7.59919 33.66C6.22552 32.4027 5.01942 30.9168 4.04044 29.2211C2.84606 27.1525 2.09981 24.9462 1.77091 22.7153L3.69388 22.0905ZM8.24677 9.63043L7.32778 10.615C7.28677 10.659 7.25091 10.7076 7.22099 10.7598L5.13411 14.4032L3.27935 15.7295C2.93388 15.9765 2.84903 16.4541 3.08825 16.805L3.78192 17.8225C3.38208 17.8821 3.02325 17.9311 2.78466 17.9572C2.7388 17.9132 2.69083 17.8686 2.64122 17.8225C2.45552 17.65 2.19747 17.4196 1.81278 17.0829C2.44724 13.1561 4.33942 9.45676 7.31536 6.63293C7.8852 6.81239 8.35286 7.23747 8.5813 7.79192C8.83833 8.41551 8.70692 9.13723 8.24677 9.63043ZM14.6163 13.8994C14.9647 13.7033 15.7735 13.6747 16.364 13.6537C16.6006 13.6454 16.8242 13.6374 17.0239 13.6207C17.1293 13.6118 17.2463 13.6135 17.3567 13.6221C17.3074 13.7486 17.2914 13.8875 17.3128 14.0254C17.3504 14.2678 17.4998 14.4783 17.7161 14.594C17.8626 14.6725 18.0666 14.8085 18.2825 14.9525C18.8931 15.3595 19.5852 15.8208 20.2354 15.8622C20.8266 15.9006 21.1556 15.5636 21.2965 15.4201C21.3078 15.4087 21.3184 15.3973 21.3297 15.3869C21.409 15.3222 21.4834 15.2355 21.5387 15.1309C21.6636 15.1666 21.7949 15.2022 21.9294 15.2386C22.392 15.3639 23.253 15.597 23.4433 15.7986C23.7811 16.1568 24.0445 16.8386 24.2769 17.44C24.3943 17.744 24.5053 18.0309 24.6297 18.2969C24.6832 18.4111 24.7358 18.5286 24.7892 18.6477C25.1497 19.4518 25.5583 20.3632 26.425 20.9297C26.8181 21.1867 27.2999 21.2605 27.725 21.3257C27.7765 21.3336 27.8354 21.3427 27.8952 21.3525C27.6429 21.7046 27.2836 22.0391 26.904 22.3926C25.9368 23.2932 24.7333 24.4142 25.2875 26.2024C25.5492 27.0468 25.5614 27.138 25.1407 27.5957C25.0833 27.6581 25.0299 27.715 24.9798 27.7682C24.6195 28.1518 24.3349 28.4548 24.0993 29.197C24.0308 29.4125 23.9422 29.5124 23.7811 29.6936C23.6524 29.8386 23.492 30.0193 23.3441 30.2724C23.1669 30.5757 23.1083 30.8677 23.0614 31.1023C23.015 31.3332 22.9888 31.449 22.8982 31.5603C22.6918 31.8136 22.307 32.1814 21.9119 32.4324C21.5447 32.6655 21.3304 32.6974 21.2573 32.693C21.174 32.6036 20.872 32.2123 20.4158 30.8582C20.3033 30.5241 20.1472 30.1804 19.9962 29.8479C19.6635 29.1151 19.3195 28.3573 19.4868 27.8394C19.5066 27.7783 19.5261 27.7186 19.5454 27.6603C19.8127 26.8454 20.065 26.076 19.5975 24.9557C19.4552 24.6145 19.2286 24.3652 19.0288 24.1452C18.8995 24.0029 18.753 23.8417 18.7304 23.7489C18.7029 23.6357 18.7038 23.505 18.7048 23.3536C18.7075 22.9454 18.7115 22.3286 18.0983 21.7544C17.2338 20.9452 16.2257 21.1945 15.5585 21.3595C15.3536 21.4101 15.16 21.4581 14.9884 21.4782C13.8909 21.6068 12.9111 21.1928 12.2993 20.3415C11.6594 19.4511 11.5665 18.2529 12.057 17.2147C12.2944 16.7122 12.6531 16.3086 13.0684 15.8414C13.1591 15.7393 13.2507 15.6363 13.3422 15.5308C13.4946 15.3552 13.6622 15.1174 13.8395 14.8656C14.0511 14.5652 14.4452 14.0058 14.6163 13.8994Z" fill="#203B7E"/>
<path d="M32.033 26.8968L31.6571 25.4801C31.575 25.1707 31.3125 24.9427 30.9948 24.9048C30.6766 24.8676 30.3681 25.0266 30.2154 25.308C30.1298 25.4658 30.0527 25.633 29.9781 25.7946C29.8527 26.0666 29.7231 26.3478 29.5881 26.503C29.5123 26.5902 29.3177 26.6842 29.1295 26.775C28.6798 26.992 28.0638 27.2893 27.8284 28.0394C27.6824 28.5048 27.7369 28.8729 27.7767 29.1416C27.8112 29.3747 27.8191 29.4555 27.7567 29.602L27.7489 29.6202C27.5002 30.2037 27.0376 31.2901 27.6863 32.2136C28.1492 32.8726 28.6359 33.0421 29.0141 33.0421C29.088 33.0423 29.1578 33.0359 29.2224 33.0253C30.0193 32.8951 30.6184 32.0662 31.1079 30.4165L32.0268 27.3195C32.0677 27.1818 32.0698 27.0355 32.033 26.8968ZM29.6102 29.972C29.3606 30.8131 29.1398 31.2058 29.0124 31.3798C28.9977 31.3611 28.9818 31.3398 28.9648 31.3155C28.8155 31.1029 29.0386 30.5791 29.1863 30.2325L29.1941 30.2142C29.4323 29.6553 29.3686 29.2261 29.3223 28.9127C29.2925 28.7119 29.2819 28.6257 29.3191 28.5072C29.3498 28.4098 29.5328 28.3152 29.8086 28.1821C29.9309 28.123 30.0655 28.0581 30.2013 27.9795L29.6102 29.972Z" fill="#203B7E"/>
<path d="M21.0956 9.28595L21.0429 9.26751C20.6361 9.12501 20.19 9.339 20.0472 9.74611C19.9044 10.1533 20.1187 10.599 20.5258 10.7418L20.5784 10.7602C20.664 10.7902 20.7512 10.8045 20.837 10.8045C21.1595 10.8045 21.4614 10.6031 21.5742 10.2817C21.717 9.87447 21.5027 9.42869 21.0956 9.28595Z" fill="#203B7E"/>
</g>
<defs>
<clipPath id="clip0">
<rect width="40" height="40" fill="white"/>
</clipPath>
</defs>
</svg>
