<svg width="40" height="40" fill="none" xmlns="http://www.w3.org/2000/svg"><path d="M39.167 40H.833C.373 40 0 39.61 0 39.13s.373-.87.833-.87h38.334c.46 0 .833.39.833.87s-.373.87-.833.87zm-32.5-13.913c-2.757 0-5-2.34-5-5.217s2.243-5.218 5-5.218c2.756 0 5 2.341 5 5.218 0 2.876-2.244 5.217-5 5.217zm0-8.696c-1.839 0-3.334 1.56-3.334 3.479 0 1.918 1.495 3.478 3.334 3.478 1.838 0 3.333-1.56 3.333-3.478 0-1.919-1.495-3.479-3.333-3.479zM20 13.913c-2.757 0-5-2.34-5-5.217s2.243-5.218 5-5.218 5 2.341 5 5.218c0 2.876-2.243 5.217-5 5.217zm0-8.696c-1.838 0-3.333 1.56-3.333 3.479 0 1.918 1.495 3.478 3.333 3.478s3.333-1.56 3.333-3.478c0-1.919-1.495-3.479-3.333-3.479zm13.333 5.218c-2.756 0-5-2.341-5-5.218 0-2.876 2.244-5.217 5-5.217 2.757 0 5 2.34 5 5.217s-2.243 5.218-5 5.218zm0-8.696C31.495 1.74 30 3.3 30 5.217c0 1.919 1.495 3.479 3.333 3.479 1.839 0 3.334-1.56 3.334-3.479 0-1.918-1.495-3.478-3.334-3.478z" fill="#203B7E"/><path d="M33.333 40c-.46 0-.833-.39-.833-.87V14.783c0-.48.373-.87.833-.87.46 0 .834.39.834.87V39.13c0 .48-.374.87-.834.87zM20 40c-.46 0-.833-.39-.833-.87V18.26c0-.48.373-.869.833-.869.46 0 .833.39.833.87v20.87c0 .48-.373.869-.833.869zM6.667 40c-.46 0-.834-.39-.834-.87v-8.695c0-.48.374-.87.834-.87.46 0 .833.39.833.87v8.695c0 .48-.373.87-.833.87zM9.8 18.87a.817.817 0 01-.628-.298.897.897 0 01.08-1.228l7.066-6.433a.81.81 0 011.177.084.897.897 0 01-.08 1.228l-7.067 6.433a.817.817 0 01-.548.214zM24.033 8.504a.838.838 0 01-.808-.66c-.11-.468.163-.938.608-1.053L29.1 5.437c.457-.122.9.168 1.008.633.11.467-.163.937-.608 1.052l-5.267 1.355a.738.738 0 01-.2.027z" fill="#203B7E"/></svg>