<svg width="40" height="42" fill="none" xmlns="http://www.w3.org/2000/svg"><path d="M35.942 33.991h-.088c.008-1.33.012-2.758-.004-2.956-.076-.916-1.07-1.314-1.706-.528-.313.386-1.758 3.008-2.193 3.802-.225.41.07.913.535.913h2.137l-.008 1.014c-.007.817 1.216.832 1.223.01l.008-1.024h.096a.614.614 0 00.612-.615.614.614 0 00-.612-.616zm-1.311 0h-1.105c.412-.743.815-1.455 1.112-1.966 0 .529-.003 1.234-.007 1.966zm-4.052 1.811h-.008c-.566.007-1.166.011-1.659.012 1.141-1.534 2.045-2.693 2.045-3.614a2.029 2.029 0 00-2.02-2.033c-.963 0-1.796.69-1.982 1.64a.612.612 0 101.2.237.799.799 0 01.782-.646.8.8 0 01.796.768c-.008.023.01.365-.501 1.098a61.437 61.437 0 01-1.672 2.307c-.342.451-.498.657-.393 1a.64.64 0 00.414.422c.256.085 2.224.05 3.006.04a.614.614 0 00.603-.623.614.614 0 00-.611-.608z" fill="#203B7E"/><path d="M31.62 25.133c-4.62 0-8.38 3.783-8.38 8.433S27 42 31.62 42c4.62 0 8.38-3.783 8.38-8.434 0-4.65-3.76-8.434-8.38-8.434zm0 15.636c-3.946 0-7.157-3.231-7.157-7.203 0-3.971 3.211-7.202 7.157-7.202s7.157 3.23 7.157 7.202-3.21 7.203-7.157 7.203z" fill="#203B7E"/><path d="M23.667 39.138h-3.463l-1.652-9.378.759-1.311c.558.165 1.17.02 1.6-.402l.006-.006 3.697-3.727c.694.192 1.367.455 2.006.784a.61.61 0 00.823-.267.617.617 0 00-.266-.829 11.704 11.704 0 00-2.506-.945l-1.63-1.006a1.6 1.6 0 00-1.693.013l-.185.117c-.33-.484-.252-.884-.22-1.528.356-.23.7-.492 1.031-.785a6.838 6.838 0 001.377-1.689h1.247a2.571 2.571 0 002.56-2.576v-4.786A2.04 2.04 0 0026 8.974V5.6a2.742 2.742 0 00-2.73-2.748h-.072a.104.104 0 01-.104-.104A2.742 2.742 0 0020.364 0h-6.743c-3.333 0-6.045 2.73-6.045 6.084v2.89a2.04 2.04 0 00-1.158 1.843v2.434c0 1.125.91 2.04 2.027 2.04h.842c.207 1.814 1.052 3.47 2.375 4.62.313.273.637.517.97.734-.037.631.11 1.06-.22 1.537l-.184-.118a1.6 1.6 0 00-1.692-.014l-1.63 1.007c-2.51.63-4.77 2.1-6.375 4.145A11.928 11.928 0 000 34.535v2.47c0 1.855 1.5 3.364 3.343 3.364h20.323a.614.614 0 00.612-.615.613.613 0 00-.611-.616zm-1.664-16.035a.375.375 0 01.398-.003l1.047.647-3.393 3.42a.41.41 0 01-.55.02l-1.682-1.415 4.18-2.669zm-1.872-.262l-3.343 2.134-3.34-2.133c.486-.735.397-1.459.407-1.545a7.69 7.69 0 002.965.6h.014a7.699 7.699 0 002.887-.595c.01.087-.082.788.41 1.539zm-1.842 4.927l-.73 1.261h-1.542l-.73-1.261 1.501-1.262 1.501 1.262zm3.304-9.814h-1.598a.494.494 0 010-.99h1.598a.494.494 0 010 .99zm4.342-2.351c0 .742-.6 1.345-1.337 1.345h-.678a7.56 7.56 0 00.382-1.657h.829c.285 0 .557-.06.804-.167v.479zm-.09-5.158a.81.81 0 01.09.372v2.434c0 .446-.36.809-.804.809h-.782V11.6c.18-.097 1.079-.2 1.495-1.156zM9.227 14.06h-.782a.807.807 0 01-.804-.81v-2.433a.81.81 0 01.09-.372c.418.957 1.318 1.06 1.496 1.156v2.459zm-.006-3.765a.632.632 0 01-.422-.597V6.084c0-2.676 2.163-4.853 4.822-4.853h6.743c.831 0 1.507.68 1.507 1.517 0 .736.596 1.336 1.328 1.336h.07c.832 0 1.508.68 1.508 1.516v4.098c0 .269-.17.508-.422.597l-1.338.469a.107.107 0 01-.142-.103l.002-2.546c.008-1.904-1.753-3.435-4.111-2.672-1.234.399-2.745.391-3.956 0-2.337-.756-4.12.746-4.111 2.67l.003 2.548a.107.107 0 01-.143.103l-1.338-.47zm3.241 8.685c-2.077-1.806-1.98-4.352-2.011-4.509v-2.478a1.335 1.335 0 001.474-1.333l-.003-2.55c-.004-1.019.91-2.014 2.514-1.495 1.488.481 3.267.465 4.704 0 1.5-.485 2.518.372 2.514 1.497l-.003 2.548c0 .79.68 1.42 1.474 1.333v2.639a6.384 6.384 0 01-.275 1.653 1.706 1.706 0 00-1.257-.553h-1.598c-.946 0-1.715.775-1.715 1.727 0 .952.77 1.726 1.715 1.726h.884c-1.17.938-2.527 1.455-4.058 1.48-1.66-.013-3.118-.606-4.359-1.685zm-1.287 4.12a.376.376 0 01.397.003l4.18 2.67-1.681 1.413a.41.41 0 01-.55-.019l-3.394-3.42 1.048-.647zm2.197 16.038h-6.06V36.25a.614.614 0 00-.612-.615.614.614 0 00-.612.615v2.89H3.343a2.13 2.13 0 01-2.12-2.134v-2.47c0-2.374.806-4.707 2.268-6.57a10.573 10.573 0 015.471-3.65l3.697 3.726.006.006c.43.42 1.04.567 1.6.402l.759 1.31-1.652 9.38zm1.242 0l1.564-8.878h1.22l1.564 8.878h-4.348z" fill="#203B7E"/></svg>