<svg width="40" height="40" fill="none" xmlns="http://www.w3.org/2000/svg"><path d="M18.846 29.64a.675.675 0 00-.945.145l-.084.114a.68.68 0 00.545 1.081.674.674 0 00.544-.275l.085-.116a.681.681 0 00-.145-.95z" fill="#203B7E"/><path d="M19.022 36.1l-1.739-3.176 1.624-2.22a.68.68 0 00-.145-.95.674.674 0 00-.945.146l-1.88 2.57a.681.681 0 00-.047.73l1.947 3.554a.676.676 0 101.185-.654zm5.041-3.63l-1.872-2.56a.674.674 0 00-1.201.238.681.681 0 00.11.567l1.617 2.21-1.728 3.153a.683.683 0 00.425.986.67.67 0 00.76-.33l1.936-3.535a.681.681 0 00-.047-.729zm1.071-10.671a.674.674 0 00-.698.042 10.91 10.91 0 00-1.11.876c-1.82 1.652-3.548 1.428-3.616 1.419a.654.654 0 00-.123-.008c-.72.018-2.017-.642-3.389-1.724-.21-.165-.425-.323-.64-.468a.674.674 0 00-.695-.037.68.68 0 00-.359.6v2.329a.68.68 0 00.312.572l4.796 3.217.002.002.013.008a.674.674 0 00.754-.005l.007-.004.008-.005 4.784-3.21a.68.68 0 00.316-.575V22.4a.68.68 0 00-.361-.601zm-.99 2.666L20 27.245l-4.143-2.78v-.618c1.009.736 2.493 1.64 3.702 1.639h.008c.407.045 2.478.168 4.577-1.681v.66z" fill="#203B7E"/><path d="M20.667 27.95a.675.675 0 00-1.212-.29l-1.554 2.125a.68.68 0 00.544 1.081.675.675 0 00.546-.277l1.546-2.115a.68.68 0 00.13-.524zm9.636-21.892c-.013-.106-.33-2.402-2.482-3.307.062-.404.056-.922-.2-1.426C27.28.647 26.604.205 25.613.012a.671.671 0 00-.13-.012h-9.077C12.72 0 9.72 3.01 9.72 6.712v3.576c0 .932.317 1.84.891 2.558.285.356.635.978.688 1.918a.676.676 0 001.352-.038v-4.663c.459-1.907 2.026-2.278 2.296-2.328h2.936a3.29 3.29 0 001.01-.158c.558-.18 1.443-.51 2.088-.756a1.95 1.95 0 011.345-.017l3.143 1.108a2.885 2.885 0 011.887 2.185v5.596a.677.677 0 001.345.1c.003-.018.273-1.77 1.143-3.171a3.053 3.053 0 00.464-1.61V6.144a.684.684 0 00-.006-.086zm-1.347 4.954c0 .303-.085.604-.247.871V10.05a.69.69 0 00-.004-.073 4.231 4.231 0 00-2.773-3.342l-.009-.003-3.148-1.11a3.3 3.3 0 00-2.273.03c-.903.344-1.602.597-2.022.732a1.95 1.95 0 01-.596.093h-2.991a.684.684 0 00-.087.005c-.114.015-2.812.4-3.49 3.455a.681.681 0 00-.017.148v1.398a2.768 2.768 0 01-.225-1.095V6.712c0-2.952 2.392-5.354 5.332-5.354h9.009c.373.08.826.244.998.577.21.407-.03.969-.03.97a.681.681 0 00.454.948c1.722.416 2.073 2.074 2.119 2.342v4.817z" fill="#203B7E"/><path d="M28.705 9.977a4.231 4.231 0 00-2.773-3.342l-.009-.003-3.148-1.11a3.304 3.304 0 00-2.273.029c-.903.344-1.602.598-2.022.733a1.95 1.95 0 01-.596.093h-2.991a.684.684 0 00-.087.005c-.114.015-2.812.4-3.49 3.455a.681.681 0 00-.017.148v5.853c.005.202.148 4.991 3.443 7.181l.017.012.043.03c.188.128.377.266.561.411.96.757 2.77 2.014 4.196 2.014h.008c.078.009.216.02.404.02.809 0 2.534-.213 4.263-1.782.29-.263.616-.52.97-.765l.05-.035.05-.035c1.1-.742 3.003-2.654 3.403-7.136a.681.681 0 00.002-.06V10.05a.721.721 0 00-.004-.073zm-1.348 5.684c-.369 4.045-2.085 5.613-2.807 6.1l-.076.053-.038.027a10.91 10.91 0 00-1.11.876c-1.813 1.646-3.536 1.43-3.62 1.418a.675.675 0 00-.12-.007c-.719.018-2.016-.642-3.388-1.724-.21-.165-.425-.323-.64-.468l-.016-.012a1.872 1.872 0 00-.051-.036c-2.66-1.767-2.833-5.903-2.84-6.075v-5.75c.462-1.914 2.039-2.281 2.296-2.328h2.937a3.29 3.29 0 001.01-.158c.558-.18 1.443-.51 2.088-.756a1.95 1.95 0 011.345-.017l3.143 1.108a2.885 2.885 0 011.887 2.184v5.566zm-6.752 12.097a.676.676 0 00-1.15-.098l-1.62 2.215a.681.681 0 00.544 1.081.674.674 0 00.545-.276l1.62-2.207a.705.705 0 00.06-.715zm.043 10.933a.674.674 0 00-.945-.032l-.154.142a.68.68 0 00-.134.833l.004.008a.676.676 0 001.069.15l.15-.151a.68.68 0 00.01-.95z" fill="#203B7E"/><path d="M20.451 38.801l-.154-.142a.674.674 0 00-.945.032.681.681 0 00.01.95l.15.15a.675.675 0 001.071-.153l.005-.009a.681.681 0 00-.137-.828z" fill="#203B7E"/><path d="M20.463 38.812a.674.674 0 00-.924-.002l-.002.002a.68.68 0 00-.021.983l.007.008a.673.673 0 00.955-.002l.007-.007a.68.68 0 00-.022-.982zm-.243-11.408a.68.68 0 10-.206 1.326.675.675 0 00.677-.679v-.001a.678.678 0 00-.472-.646z" fill="#203B7E"/><path d="M20.55 27.654l-.006-.008a.675.675 0 00-1.22.404v.011a.68.68 0 101.226-.407z" fill="#203B7E"/><path d="M28.045 25.52a.677.677 0 00-.404-.398l-2.593-.933a.674.674 0 00-.604.075l-4.805 3.223-.004.002.377.564-.385-.558a.679.679 0 00-.172.969l3.518 4.81a.675.675 0 001.137-.075l3.895-7.11a.68.68 0 00.04-.568zm-4.61 6.093l-2.472-3.381 3.949-2.65 1.526.55-3.002 5.48z" fill="#203B7E"/><path d="M20.666 27.944a.68.68 0 00-.289-.447l-4.82-3.234a.675.675 0 00-.605-.074l-2.593.933a.677.677 0 00-.364.966L15.89 33.2a.676.676 0 001.138.075l1.88-2.57a.21.21 0 00.004-.007l1.633-2.234a.681.681 0 00.121-.519zM17.817 29.9l-.005.006-1.248 1.707-3.002-5.481 1.526-.55 3.949 2.65-1.22 1.668zm22.15 7.213l-.873-5.29a4.678 4.678 0 00-3.011-3.634l-8.44-3.066a.674.674 0 00-.735.187.681.681 0 00-.1.754l1.762 3.549-1.73.027a.676.676 0 00-.57.331.682.682 0 00-.018.663l.71 1.36-7.259 6.666a.714.714 0 00-.022.02l-.15.151a.681.681 0 00-.115.806l.006.01a.676.676 0 00.593.353h17.513c.728 0 1.415-.32 1.885-.877.47-.557.673-1.29.554-2.01zm-1.585 1.132a1.116 1.116 0 01-.853.397H21.726l6.533-6a.68.68 0 00.142-.816l-.441-.846 1.705-.026a.676.676 0 00.568-.326c.12-.2.13-.447.027-.656l-1.487-2.995 6.85 2.489a3.32 3.32 0 012.137 2.579l.873 5.29c.053.326-.038.658-.251.91z" fill="#203B7E"/><path d="M20.469 38.818l-.008-.008a.674.674 0 00-.933.025l-.008.007A.681.681 0 0020 40h.015a.68.68 0 00.454-1.182z" fill="#203B7E"/><path d="M20.448 38.798a.674.674 0 00-1.046.178l-.005.009a.681.681 0 00.107.798l.003.003a.673.673 0 00.942.03l.007-.007a.677.677 0 00.149-.198.689.689 0 00-.157-.813z" fill="#203B7E"/><path d="M20.477 38.84l-.003-.004-.005-.005-.15-.15a.527.527 0 00-.022-.021l-7.258-6.667.71-1.36a.681.681 0 00-.59-.993l-1.729-.027 1.763-3.549a.681.681 0 00-.1-.754.674.674 0 00-.736-.187l-8.44 3.066a4.678 4.678 0 00-3.011 3.634l-.873 5.29c-.118.72.083 1.453.554 2.01.47.557 1.157.877 1.885.877H20a.68.68 0 00.477-1.16zm-18.005-.198a1.125 1.125 0 01-1.104-1.307l.872-5.29a3.32 3.32 0 012.137-2.58l6.85-2.488-1.486 2.995a.681.681 0 00.594.982l1.705.026-.44.846a.68.68 0 00.142.816l6.532 6H2.472z" fill="#203B7E"/><path d="M22.302 30.477a.68.68 0 00-.111-.567l-1.646-2.25a.673.673 0 00-1.111.037l-1.616 2.2a.681.681 0 00-.011.793l.688.992-.733 4.639a.682.682 0 00.075.433l1.57 2.867a.676.676 0 001.186 0l1.582-2.888a.69.69 0 00.075-.434l-.73-4.617.68-.981a.687.687 0 00.102-.224zM20 37.885l-.866-1.581.74-4.68a.68.68 0 00-.113-.494l-.567-.817.808-1.101.813 1.11-.56.808a.681.681 0 00-.113.495l.736 4.657L20 37.885z" fill="#203B7E"/></svg>