<svg width="40" height="40" fill="none" xmlns="http://www.w3.org/2000/svg"><g clip-path="url(#clip0)" fill="#203B7E"><path d="M30.286 36.251a.781.781 0 00-1.068-.283l-.03.017a.781.781 0 00.784 1.351l.03-.017a.781.781 0 00.284-1.068z"/><path d="M37.32 10.007A19.864 19.864 0 0025.179.691a19.864 19.864 0 00-15.173 1.997A19.864 19.864 0 00.69 14.83a19.865 19.865 0 001.997 15.172 19.991 19.991 0 0017.33 9.999c2.427 0 4.85-.441 7.14-1.321a.781.781 0 10-.561-1.459C20.5 39.564 13.902 38.5 8.972 34.8l.7-3.653.337-.11a2.433 2.433 0 001.56-3.062l-.247-.762a.862.862 0 010-.538A2.432 2.432 0 009.48 23.53l-1.764-.345L4.314 20.6a.782.782 0 00-.714-.12l-1.992.646a18.416 18.416 0 01-.003-2.133c.079.073.13.123.162.156a.786.786 0 00.143.176c.163.148.31.215.62.215.284 0 .705-.056 1.4-.16a82.308 82.308 0 001.321-.207.781.781 0 00.516-1.21l-.958-1.406 1.372-.981a.78.78 0 00.224-.247l2.127-3.713.857-.919a3.3 3.3 0 00.637-3.5 3.593 3.593 0 00-1.423-1.675 18.494 18.494 0 012.184-1.48 18.318 18.318 0 019.003-2.463l-1.395 1.75-5.173 1.813a.78.78 0 00-.464.44l-1.444 3.502a.781.781 0 00.086.751l2.11 2.956c-.302.276-.596.677-.948 1.176a8 8 0 01-.4.54c-.087.101-.175.2-.262.297-.453.511-.923 1.04-1.256 1.744-.733 1.552-.585 3.355.386 4.707.94 1.306 2.488 1.97 4.14 1.776.27-.032.52-.094.763-.154.67-.166.882-.182 1.097.019.105.098.114.116.112.448a3.04 3.04 0 00.07.774c.117.48.418.812.66 1.079.12.132.245.27.284.361.243.584.137.908-.095 1.616L18 27.36c-.353 1.093.14 2.178.573 3.135.142.31.275.604.362.863.703 2.084 1.229 2.562 1.652 2.754.22.1.45.145.681.145 1.127 0 2.302-1.046 2.842-1.71.339-.415.422-.832.483-1.137.03-.151.054-.27.1-.349.07-.12.152-.212.256-.33.21-.235.47-.529.64-1.06.128-.405.22-.504.53-.832l.172-.185c1.04-1.133.773-1.998.489-2.913-.24-.77.179-1.264 1.189-2.204.437-.408.89-.83 1.24-1.336.153-.222.619-.896.33-1.565-.282-.655-1-.765-1.577-.854-.228-.035-.572-.088-.682-.16-.483-.315-.78-.975-1.065-1.613-.057-.127-.113-.252-.17-.374-.102-.217-.203-.48-.31-.757-.285-.736-.607-1.57-1.155-2.15-.493-.523-1.422-.775-2.242-.997a9.663 9.663 0 01-.708-.208.78.78 0 00-.448-.028c-.4.094-.648.197-.833.345a.972.972 0 00-.278.374c-.286-.137-.68-.4-.922-.56a.065.065 0 00-.015-.01 1.108 1.108 0 00-.07-.753c-.436-.923-1.884-.85-2.17-.826-.163.013-.368.02-.585.028-.342.012-.719.026-1.092.068l.02-.054a1.997 1.997 0 011.875-1.32h.444a.781.781 0 000-1.562h-.444a3.566 3.566 0 00-3.024 1.687l-1.165-1.633L14.069 6.5l5.055-1.773a.782.782 0 00.352-.25l2.248-2.818c5.741.546 11.146 3.765 14.243 9.13a18.231 18.231 0 011.84 4.47l-.33.296a2.087 2.087 0 00-.696 1.518v.019l-.54-1.484a1.952 1.952 0 00-.351-.603l-.963-1.127a1.958 1.958 0 00-1.49-.687h-1.179a1.13 1.13 0 00-.941 1.759l.12.179a8.656 8.656 0 01-2.58 1.531l-1.615-3.093v-.69a.78.78 0 00-.242-.565l-1.454-1.388a.781.781 0 00-.28-.172l-1.31-.46a.78.78 0 10-.517 1.474l1.15.404 1.09 1.041v.548c0 .126.031.25.09.361l2.021 3.873a.78.78 0 00.963.371l.589-.217a10.223 10.223 0 003.665-2.346.781.781 0 00.098-.986l-.042-.062h.373c.117 0 .227.05.303.14l.963 1.126a.396.396 0 01.071.123l1.062 2.92a.781.781 0 001.287.286l.505-.506c.32-.32.54-.725.646-1.174.782 6.266-1.675 12.748-6.868 16.824a.78.78 0 10.964 1.229 19.985 19.985 0 007.253-11.852 19.981 19.981 0 00-2.302-13.862zM3.694 22.09l3.221 2.45a.781.781 0 00.323.145l1.942.379a.857.857 0 01.582.413c.128.218.155.47.076.71a2.415 2.415 0 00-.002 1.508l.248.761a.87.87 0 01-.558 1.094l-.776.252a.781.781 0 00-.526.596l-.625 3.262a18.64 18.64 0 01-3.559-4.439 18.336 18.336 0 01-2.27-6.506l1.924-.625zM8.247 9.63l-.92.985a.785.785 0 00-.106.145l-2.087 3.643L3.28 15.73a.781.781 0 00-.19 1.076l.693 1.018c-.4.06-.759.108-.997.134a39.732 39.732 0 00-.972-.874 18.465 18.465 0 015.502-10.45 2.03 2.03 0 011.266 1.159 1.734 1.734 0 01-.334 1.838zm6.37 4.27c.348-.197 1.156-.225 1.747-.246.237-.009.46-.017.66-.033a1.95 1.95 0 01.333.001.78.78 0 00.36.972c.146.079.35.215.566.359.61.407 1.302.868 1.952.91.592.038.92-.3 1.062-.443a.343.343 0 01.033-.033.838.838 0 00.209-.256c.125.036.256.071.39.108.463.125 1.324.358 1.514.56.338.358.601 1.04.834 1.641.117.304.228.59.353.857l.16.35c.36.805.768 1.716 1.635 2.283.393.257.875.33 1.3.396l.17.026c-.252.353-.611.687-.991 1.04-.967.901-2.17 2.022-1.616 3.81.261.845.273.936-.147 1.394l-.161.172c-.36.384-.645.687-.88 1.429-.07.216-.158.315-.319.497a3.476 3.476 0 00-.437.578c-.177.304-.236.596-.283.83-.046.231-.072.347-.163.458a4.555 4.555 0 01-.986.872c-.367.233-.582.265-.655.261-.083-.09-.385-.48-.841-1.835a11.13 11.13 0 00-.42-1.01c-.332-.733-.676-1.49-.51-2.009l.06-.179c.267-.815.519-1.584.052-2.704-.143-.341-.37-.59-.57-.81-.128-.143-.275-.304-.298-.397-.027-.113-.026-.244-.025-.395.003-.409.007-1.025-.607-1.6-.864-.809-1.872-.56-2.54-.395-.204.051-.398.1-.57.12-1.097.128-2.077-.286-2.689-1.137-.64-.89-.732-2.09-.242-3.127.237-.503.596-.906 1.011-1.374.091-.102.183-.205.274-.31.153-.176.32-.414.497-.665.212-.3.606-.86.777-.967z"/><path d="M32.033 26.897l-.376-1.417a.781.781 0 00-1.442-.172c-.085.158-.162.325-.237.487-.125.272-.255.553-.39.708-.076.087-.27.181-.459.272-.45.217-1.065.514-1.3 1.264-.147.466-.092.834-.052 1.103.034.233.042.314-.02.46l-.008.018c-.249.584-.711 1.67-.063 2.594.463.659.95.828 1.328.828.074 0 .144-.006.208-.017.797-.13 1.396-.959 1.886-2.608l.919-3.098a.781.781 0 00.006-.422zm-2.423 3.075c-.25.841-.47 1.234-.598 1.408a1.434 1.434 0 01-.047-.064c-.15-.213.074-.737.221-1.083l.008-.019c.238-.559.175-.988.128-1.301-.03-.201-.04-.287-.003-.406.03-.097.214-.192.49-.325.122-.059.256-.124.392-.202l-.59 1.992zM21.096 9.286l-.053-.018a.782.782 0 00-.517 1.474l.052.018a.78.78 0 10.518-1.474z"/></g><defs><clipPath id="clip0"><path fill="#fff" d="M0 0h40v40H0z"/></clipPath></defs></svg>