<svg width="25" height="24" viewBox="0 0 25 24" fill="none" xmlns="http://www.w3.org/2000/svg">
<path d="M19.61 11.7182L24.7128 6.68594C24.7131 6.68565 24.7133 6.68531 24.7137 6.68502C25.0961 6.30673 25.0949 5.69202 24.7136 5.31499C24.7133 5.3147 24.713 5.31436 24.7127 5.31407L19.6099 0.281804C19.2277 -0.0951807 18.6093 -0.0937778 18.2288 0.285094C17.8484 0.663916 17.8498 1.27664 18.2321 1.65368L21.6581 5.03226L0.976567 5.03226C0.437212 5.03226 5.65681e-06 5.46552 5.63323e-06 6C5.60966e-06 6.53449 0.437212 6.96774 0.976567 6.96774L21.6581 6.96774L18.2322 10.3463C17.8499 10.7234 17.8485 11.3361 18.2289 11.7149C18.6095 12.0938 19.2278 12.0951 19.61 11.7182Z" fill="#8F8F8F"/>
<path d="M5.38996 12.2818L0.287225 17.3141C0.286932 17.3144 0.286688 17.3147 0.286346 17.315C-0.0960751 17.6933 -0.0948544 18.308 0.286444 18.685C0.286737 18.6853 0.286981 18.6856 0.287323 18.6859L5.39005 23.7182C5.77233 24.0952 6.39069 24.0938 6.77116 23.7149C7.15162 23.3361 7.15016 22.7234 6.76788 22.3463L3.34191 18.9677L24.0234 18.9677C24.5628 18.9677 25 18.5345 25 18C25 17.4655 24.5628 17.0323 24.0234 17.0323H3.34191L6.76779 13.6537C7.15006 13.2766 7.15153 12.6639 6.77106 12.2851C6.39054 11.9062 5.77218 11.9049 5.38996 12.2818Z" fill="#8F8F8F"/>
</svg>
