<svg width="200" height="45" viewBox="0 0 200 45" fill="none" xmlns="http://www.w3.org/2000/svg">
<path d="M46.5087 40.1647V33.7318H49.9232V34.5276H47.3819V40.1404L46.5087 40.1647Z" fill="#C6C6C6"/>
<path d="M53.7834 33.7743V34.9467C53.9697 34.5054 54.2853 34.1321 54.6878 33.877C55.0904 33.6218 55.5607 33.4969 56.0357 33.5192C56.4591 33.495 56.8822 33.5721 57.2704 33.7442C57.6587 33.9163 58.0011 34.1784 58.2699 34.5093C58.7882 35.1936 59.0601 36.0356 59.0407 36.8966C59.0628 37.5769 58.9267 38.253 58.6433 38.8708C58.4193 39.3593 58.054 39.768 57.5954 40.0432C57.166 40.2957 56.6774 40.4279 56.1802 40.4259C55.6816 40.449 55.1867 40.329 54.753 40.0796C54.3475 39.8196 54.0139 39.4602 53.7834 39.0348V45H52.9343V33.7743H53.7834ZM58.0712 36.9027C58.0796 36.2629 57.9151 35.6329 57.5954 35.0803C57.4138 34.8159 57.166 34.6046 56.8773 34.4681C56.5885 34.3315 56.2691 34.2745 55.9514 34.3028C55.6344 34.29 55.3194 34.3579 55.0353 34.5001C54.7511 34.6423 54.507 34.8544 54.3254 35.1168C53.9379 35.6793 53.7375 36.3515 53.7533 37.0363C53.7304 37.7082 53.9437 38.3666 54.3555 38.8951C54.5312 39.1362 54.7607 39.3322 55.0254 39.4672C55.2901 39.6023 55.5825 39.6727 55.8791 39.6726C56.2098 39.7042 56.5427 39.6433 56.8412 39.4965C57.1397 39.3496 57.3924 39.1227 57.5713 38.8404C57.9096 38.2524 58.0825 37.5824 58.0712 36.9027Z" fill="#C6C6C6"/>
<path d="M61.5699 33.7318H62.5275L64.3341 38.7494L66.0082 33.7318H66.9417L63.6416 43.3538H62.7262L63.8583 40.11L61.5699 33.7318Z" fill="#C6C6C6"/>
<path d="M69.0615 39.0591L69.6336 38.4516C69.8229 38.7772 70.0847 39.0538 70.3984 39.2596C70.7254 39.4582 71.1007 39.5612 71.4824 39.5572C71.868 39.559 72.2454 39.4448 72.5664 39.2292C72.7263 39.1269 72.8563 38.9836 72.9431 38.8138C73.0299 38.6441 73.0703 38.4541 73.0602 38.2633C73.0602 37.4797 72.6446 37.0849 71.8076 37.0849H71.2054V36.4228H71.7473C72.0164 36.4121 72.2771 36.3258 72.5001 36.1737C72.6325 36.0759 72.7373 35.9448 72.8038 35.7934C72.8704 35.6421 72.8965 35.4758 72.8795 35.3111C72.8797 35.0349 72.774 34.7693 72.5844 34.57C72.4458 34.4529 72.2856 34.3647 72.1129 34.3105C71.9403 34.2562 71.7587 34.2371 71.5787 34.2542C71.2498 34.248 70.9221 34.2973 70.6092 34.3999C70.2524 34.5927 69.9531 34.8779 69.742 35.2261L69.2301 34.734C69.4855 34.3507 69.8349 34.0407 70.2444 33.8342C70.6539 33.6276 71.1095 33.5317 71.5667 33.5556C72.1303 33.5329 72.6867 33.6902 73.1565 34.0051C73.3448 34.1326 73.4985 34.3055 73.6036 34.5081C73.7088 34.7107 73.7621 34.9366 73.7587 35.1653C73.7587 35.87 73.289 36.3802 72.3435 36.7022C73.4275 36.8237 73.9695 37.3582 73.9695 38.3119C73.9635 38.5843 73.8951 38.8516 73.7697 39.0929C73.6444 39.3342 73.4654 39.543 73.2468 39.703C72.9283 39.9404 72.5665 40.1121 72.1821 40.2082C71.7977 40.3044 71.3983 40.3231 71.0067 40.2632C70.6151 40.2034 70.2391 40.0663 69.9001 39.8597C69.5612 39.653 69.2659 39.381 69.0314 39.0591H69.0615Z" fill="#C6C6C6"/>
<path d="M76.3361 37.0181C76.332 36.4031 76.4877 35.7978 76.7878 35.2625C77.0817 34.7315 77.5119 34.2899 78.0332 33.9843C78.5545 33.6786 79.1477 33.52 79.7507 33.5252C80.6637 33.5057 81.5501 33.8356 82.2318 34.4486C82.5747 34.7713 82.8436 35.1658 83.0194 35.6045C83.1952 36.0431 83.2737 36.5152 83.2495 36.9877C83.2711 37.4597 83.1876 37.9305 83.0053 38.3657C82.8229 38.8008 82.5463 39.1893 82.1957 39.5026C81.5081 40.1184 80.6158 40.4502 79.6965 40.432C78.8185 40.452 77.9665 40.13 77.3178 39.5329C76.9806 39.2126 76.7177 38.821 76.548 38.3863C76.3783 37.9515 76.306 37.4843 76.3361 37.0181ZM82.3161 37.0181C82.3252 36.6701 82.2655 36.3238 82.1404 35.9995C82.0153 35.6751 81.8273 35.3791 81.5874 35.1289C81.3547 34.8841 81.0737 34.6911 80.7625 34.5624C80.4514 34.4337 80.117 34.3722 79.7808 34.3817C79.4503 34.3796 79.1231 34.4483 78.821 34.5834C78.5189 34.7185 78.2487 34.9169 78.0284 35.1654C77.558 35.6728 77.2964 36.3416 77.2964 37.0363C77.2964 37.731 77.558 38.3998 78.0284 38.9072C78.2366 39.1433 78.4916 39.3328 78.7768 39.4636C79.062 39.5944 79.3712 39.6635 79.6844 39.6666C80.3702 39.667 81.0299 39.4017 81.5272 38.9255C81.7907 38.6799 81.9978 38.3793 82.134 38.0446C82.2703 37.7099 82.3324 37.3492 82.3161 36.9877V37.0181Z" fill="#C6C6C6"/>
<path d="M90.2713 34.5701H86.8387V40.1647H85.9716V33.7318H91.1626V40.1404H90.2713V34.5701Z" fill="#C6C6C6"/>
<path d="M99.9488 36.9817H94.8963C94.8823 37.6402 95.0648 38.2878 95.4202 38.8404C95.5969 39.1107 95.8419 39.3285 96.1297 39.4716C96.4176 39.6146 96.7381 39.6777 97.0582 39.6544C97.9495 39.6544 98.6621 39.1401 99.1961 38.1115L100.003 38.561C99.7317 39.0651 99.3751 39.5174 98.9491 39.8974C98.4139 40.293 97.756 40.4826 97.0943 40.432C96.6533 40.4571 96.2126 40.3772 95.8077 40.1989C95.4029 40.0206 95.0453 39.7488 94.7638 39.4054C94.2082 38.7329 93.911 37.8812 93.9267 37.0059C93.8792 36.083 94.166 35.174 94.7337 34.4486C95.019 34.1297 95.3716 33.8795 95.7656 33.7165C96.1596 33.5535 96.5849 33.4819 97.01 33.507C97.5325 33.4979 98.0486 33.6233 98.5095 33.8715C98.9663 34.1435 99.3314 34.5477 99.5574 35.0317C99.8389 35.6413 99.973 36.3096 99.9488 36.9817ZM98.901 36.2406C98.8714 35.7616 98.6922 35.3044 98.3891 34.9345C98.2004 34.7361 97.9697 34.5833 97.7142 34.4876C97.4587 34.3918 97.185 34.3557 96.9137 34.3818C95.7735 34.3818 95.1231 35.0014 94.9625 36.2406H98.901Z" fill="#C6C6C6"/>
<path d="M103.646 33.7743V34.9467C103.832 34.5064 104.147 34.1338 104.548 33.8787C104.95 33.6236 105.419 33.4982 105.893 33.5191C106.316 33.4945 106.739 33.5714 107.128 33.7435C107.516 33.9156 107.858 34.178 108.127 34.5093C108.65 35.1917 108.924 36.0345 108.904 36.8966C108.926 37.5769 108.79 38.253 108.506 38.8708C108.28 39.3597 107.913 39.7684 107.452 40.0432C107.025 40.2966 106.539 40.4288 106.043 40.4259C105.545 40.449 105.05 40.3289 104.616 40.0796C104.209 39.8213 103.875 39.4614 103.646 39.0348V45H102.773V33.7743H103.646ZM107.934 36.9027C107.943 36.262 107.777 35.6312 107.452 35.0803C107.271 34.8168 107.024 34.6062 106.737 34.4696C106.449 34.3331 106.131 34.2756 105.814 34.3028C105.497 34.29 105.182 34.3578 104.898 34.5001C104.614 34.6423 104.37 34.8544 104.188 35.1167C103.788 35.6744 103.577 36.3477 103.586 37.0363C103.566 37.7078 103.779 38.3653 104.188 38.8951C104.366 39.1359 104.596 39.3316 104.862 39.4666C105.127 39.6016 105.421 39.6722 105.718 39.6726C106.048 39.7031 106.379 39.6415 106.677 39.4948C106.974 39.348 107.226 39.1217 107.404 38.8404C107.756 38.2566 107.939 37.5857 107.934 36.9027Z" fill="#C6C6C6"/>
<path d="M117.588 36.9817H112.553C112.538 37.6412 112.723 38.2896 113.083 38.8405C113.26 39.1107 113.505 39.3285 113.793 39.4716C114.081 39.6146 114.401 39.6778 114.721 39.6545C115.606 39.6545 116.323 39.1381 116.859 38.1115L117.666 38.561C117.393 39.0638 117.036 39.5157 116.612 39.8974C116.076 40.2921 115.419 40.4815 114.757 40.432C114.315 40.4571 113.874 40.3773 113.468 40.199C113.062 40.0207 112.703 39.7489 112.421 39.4054C111.865 38.7329 111.568 37.8812 111.584 37.006C111.539 36.0834 111.826 35.1756 112.391 34.4486C112.677 34.1295 113.031 33.8793 113.426 33.7164C113.821 33.5535 114.247 33.4819 114.673 33.507C115.194 33.4962 115.708 33.6218 116.166 33.8715C116.624 34.1449 116.99 34.5486 117.22 35.0317C117.492 35.6439 117.618 36.3117 117.588 36.9817ZM116.54 36.2406C116.505 35.7629 116.326 35.3073 116.028 34.9346C115.839 34.7353 115.607 34.582 115.35 34.4862C115.094 34.3904 114.819 34.3547 114.546 34.3818C113.414 34.3818 112.764 35.0014 112.595 36.2406H116.54Z" fill="#C6C6C6"/>
<path d="M120.297 33.7318H122.465C123.028 33.698 123.59 33.8176 124.091 34.078C124.279 34.215 124.428 34.3993 124.523 34.6125C124.618 34.8257 124.656 35.0603 124.633 35.293C124.659 35.6453 124.547 35.9938 124.323 36.2648C124.098 36.5357 123.777 36.7078 123.429 36.7448C123.746 36.7821 124.045 36.9114 124.291 37.1169C124.536 37.3224 124.718 37.5953 124.813 37.9026C124.908 38.2099 124.912 38.5383 124.826 38.8482C124.74 39.158 124.566 39.436 124.326 39.6484C123.856 40.0196 123.266 40.2015 122.67 40.1586H120.322L120.297 33.7318ZM122.628 34.5458H121.171V36.3681H122.628C122.899 36.3882 123.168 36.3154 123.393 36.1616C123.496 36.0787 123.579 35.972 123.633 35.8505C123.688 35.7291 123.713 35.5962 123.706 35.463C123.721 35.3346 123.705 35.2044 123.658 35.0837C123.612 34.963 123.538 34.8556 123.441 34.7705C123.193 34.6303 122.912 34.5609 122.628 34.5701V34.5458ZM121.171 37.1578V39.3629H122.61C122.971 39.3904 123.331 39.2964 123.634 39.0956C123.747 38.9761 123.833 38.8333 123.886 38.6771C123.939 38.5208 123.958 38.3548 123.941 38.1905C123.941 37.5041 123.555 37.1578 122.779 37.1578H121.171Z" fill="#C6C6C6"/>
<path d="M127.452 37.0181C127.45 36.4026 127.607 35.7974 127.909 35.2625C128.197 34.7313 128.624 34.29 129.144 33.9869C129.667 33.6761 130.265 33.5164 130.872 33.5252C131.784 33.5036 132.669 33.8338 133.347 34.4486C133.691 34.771 133.961 35.1653 134.138 35.6039C134.314 36.0425 134.394 36.5148 134.371 36.9877C134.391 37.4595 134.307 37.9299 134.125 38.3649C133.943 38.7999 133.667 39.1885 133.317 39.5026C132.629 40.1173 131.737 40.449 130.818 40.432C129.93 40.4574 129.067 40.1352 128.409 39.5329C128.077 39.2096 127.82 38.8169 127.654 38.3825C127.489 37.948 127.42 37.4823 127.452 37.0181ZM133.438 37.0181C133.445 36.6703 133.385 36.3244 133.26 36.0002C133.135 35.676 132.948 35.3799 132.709 35.1289C132.476 34.8841 132.195 34.6911 131.884 34.5624C131.573 34.4337 131.239 34.3722 130.902 34.3817C130.571 34.3799 130.243 34.4487 129.94 34.5837C129.637 34.7188 129.366 34.917 129.144 35.1653C128.672 35.6721 128.41 36.3412 128.41 37.0363C128.41 37.7314 128.672 38.4004 129.144 38.9072C129.352 39.1436 129.607 39.3333 129.892 39.4641C130.177 39.5949 130.487 39.6639 130.8 39.6666C131.484 39.6673 132.142 39.4019 132.637 38.9255C132.903 38.6818 133.113 38.3818 133.252 38.0469C133.39 37.7119 133.454 37.3502 133.438 36.9877V37.0181Z" fill="#C6C6C6"/>
<path d="M136.641 39.0591L137.244 38.4517C137.438 38.7691 137.701 39.0372 138.015 39.2353C138.34 39.4331 138.713 39.5362 139.092 39.533C139.48 39.5356 139.86 39.4214 140.182 39.2049C140.342 39.1027 140.472 38.9593 140.559 38.7896C140.646 38.6198 140.686 38.4298 140.676 38.2391C140.676 37.4555 140.255 37.0606 139.424 37.0606H138.821V36.3985H139.357C139.628 36.388 139.891 36.3018 140.116 36.1495C140.249 36.0516 140.353 35.9205 140.42 35.7692C140.487 35.6179 140.513 35.4516 140.496 35.2869C140.493 35.0112 140.388 34.7464 140.201 34.5458C140.062 34.4287 139.902 34.3404 139.729 34.2862C139.556 34.232 139.375 34.2129 139.195 34.2299C138.866 34.2238 138.538 34.273 138.225 34.3757C137.869 34.5684 137.569 34.8536 137.358 35.2018L136.846 34.7098C137.101 34.3256 137.45 34.0149 137.86 33.8083C138.269 33.6017 138.725 33.5062 139.183 33.5313C139.746 33.5087 140.303 33.666 140.773 33.9809C140.961 34.1083 141.115 34.2812 141.22 34.4839C141.325 34.6865 141.378 34.9124 141.375 35.1411C141.375 35.8457 140.905 36.356 139.96 36.6779C141.044 36.7994 141.586 37.334 141.586 38.2877C141.58 38.56 141.511 38.8273 141.386 39.0686C141.26 39.3099 141.082 39.5187 140.863 39.6788C140.544 39.9162 140.183 40.0878 139.798 40.184C139.414 40.2801 139.014 40.2988 138.623 40.239C138.231 40.1792 137.855 40.042 137.516 39.8354C137.177 39.6288 136.882 39.3567 136.648 39.0349L136.641 39.0591Z" fill="#C6C6C6"/>
<path d="M144.308 40.1647V33.7318H145.175V36.5808L148.342 33.7318H149.577L146.162 36.5929L149.806 40.1404H148.601L145.181 36.8298V40.1404L144.308 40.1647Z" fill="#C6C6C6"/>
<path d="M152.799 40.5474V33.7317H153.648V38.482L158.146 33.3855V40.1404H157.279V35.5541L152.799 40.5474Z" fill="#C6C6C6"/>
<path d="M0 7.54454H32.5193V40.1647H39.8482V0H0V6.03199" fill="#F39200"/>
<path d="M34.2959 5.29089C34.2959 5.29089 0 19.6632 0 35.2808V40.1404H10.3701C10.3701 40.1404 4.67917 23.8303 33.9225 9.3183L35.693 6.03198L34.2959 5.29089Z" fill="#F39200"/>
<path d="M15.3564 40.1526C15.3564 40.1526 12.9957 26.0658 24.4498 18.1082C24.4498 18.1082 19.4996 32.1524 24.5883 40.1526H15.3564Z" fill="#C6C6C6"/>
<path d="M0 15.2167V24.4256C0 24.4256 5.35967 15.1863 19.7465 10.272C19.7465 10.272 4.56475 9.05106 0 15.2167Z" fill="#C6C6C6"/>
<path d="M46.4786 15.9274H42.7931V11.8635H54.8373V15.9152H51.1518V28.7567H46.4666L46.4786 15.9274Z" fill="white"/>
<path d="M56.5476 11.8635H63.6115C68.369 11.8635 69.7119 15.1924 69.7119 17.5067C69.7119 19.8211 68.3449 23.1803 63.6115 23.1803H61.2388V28.7567H56.5476V11.8635ZM61.2388 19.4627H62.5697C64.6473 19.4627 64.8641 18.2478 64.8641 17.5067C64.8641 16.6624 64.5751 15.5811 62.5697 15.5811H61.2268L61.2388 19.4627Z" fill="white"/>
<path d="M76.1495 11.8635H81.8404L87.8023 28.7567H82.7738L81.8404 25.8349H76.1495L75.2161 28.7689H70.1876L76.1495 11.8635ZM77.0829 22.1173H80.907L78.9919 15.8909L77.0829 22.1173Z" fill="white"/>
<path d="M89.1392 11.8635H93.8304V17.938H99.5273V11.8635H104.212V28.7567H99.5273V22.014H93.8304V28.7689H89.1392V11.8635Z" fill="white"/>
<path d="M119.575 27.9975C118.234 28.8819 116.653 29.3215 115.052 29.2549C110.078 29.2549 106.489 25.7256 106.489 20.3193C106.489 14.6761 110.439 11.3897 114.986 11.3897C116.614 11.3763 118.211 11.8475 119.575 12.7444V17.6404C119.102 17.0289 118.501 16.53 117.815 16.1794C117.129 15.8287 116.375 15.6348 115.606 15.6115C113.023 15.6115 111.325 17.689 111.325 20.4711C111.325 23.0285 112.926 25.0331 115.606 25.0331C116.355 25.0121 117.092 24.84 117.773 24.527C118.455 24.214 119.068 23.7665 119.575 23.2107V27.9975Z" fill="white"/>
<path d="M121.442 12.9569C123.159 11.9505 125.105 11.4105 127.09 11.3897C130.848 11.3897 133.528 13.3457 133.528 16.1703C133.525 17.0174 133.258 17.8419 132.764 18.5268C132.27 19.2117 131.574 19.722 130.776 19.9851V20.058C132.143 20.4893 133.889 21.5281 133.889 24.0854C133.889 27.2988 130.945 29.2548 127.163 29.2548C124.796 29.2548 123.26 28.7932 120.581 26.74L122.52 23.6056C123.724 24.7354 125.32 25.5372 126.591 25.5372C128.596 25.5372 129.054 24.377 129.054 23.6784C129.054 22.6883 128.361 21.9168 126.35 21.9168H123.694V18.5455H126.35C128.482 18.5455 128.837 17.5553 128.837 16.8082C128.837 15.7451 127.879 15.1195 126.428 15.1195C125.211 15.1417 124.032 15.5474 123.056 16.2797L121.442 12.9569Z" fill="white"/>
<path d="M140.345 11.8635H146.042L151.998 28.7567H146.975L146.042 25.8349H140.345L139.418 28.7567H134.389L140.345 11.8635ZM141.279 22.1173H145.109L143.194 15.8909L141.279 22.1173Z" fill="white"/>
<path d="M153.341 11.8635H158.032V18.9707L163.078 11.8635H168.559L162.193 20.0459L168.727 28.7567H162.862L158.008 21.4673V28.7567H153.317L153.341 11.8635Z" fill="white"/>
<path d="M174.376 11.8635H180.067L186.029 28.7567H181L180.067 25.8349H174.376L173.443 28.7567H168.414L174.376 11.8635ZM175.309 22.1173H179.133L177.224 15.8909L175.309 22.1173Z" fill="white"/>
<path d="M186.89 12.9569C188.606 11.9489 190.553 11.4088 192.539 11.3897C196.29 11.3897 198.97 13.3457 198.97 16.1703C198.969 17.0168 198.703 17.8413 198.21 18.5262C197.717 19.2112 197.022 19.7217 196.224 19.9851V20.058C197.585 20.4893 199.332 21.5281 199.332 24.0854C199.332 27.2988 196.387 29.2548 192.611 29.2548C190.238 29.2548 188.709 28.7932 186.029 26.74L187.968 23.6056C189.172 24.7354 190.768 25.5372 192.033 25.5372C194.044 25.5372 194.496 24.377 194.496 23.6784C194.496 22.6883 193.803 21.9168 191.792 21.9168H189.136V18.5455H191.792C193.924 18.5455 194.285 17.5553 194.285 16.8082C194.285 15.7451 193.328 15.1195 191.876 15.1195C190.66 15.1437 189.481 15.5492 188.504 16.2797L186.89 12.9569Z" fill="white"/>
<path d="M175.52 33.8107H169.203V40.1829H175.52V33.8107Z" fill="#C6C6C6"/>
<path d="M187.757 33.8107H181.44V40.1829H187.757V33.8107Z" fill="#C6C6C6"/>
<path d="M200 33.8107H193.683V40.1829H200V33.8107Z" fill="#F39200"/>
</svg>
