<svg width="20" height="20" viewBox="0 0 20 20" fill="none" xmlns="http://www.w3.org/2000/svg">
<path fill-rule="evenodd" clip-rule="evenodd" d="M13.7537 14.7437C12.317 15.772 10.5311 16.3814 8.59592 16.3814C3.84852 16.3814 0 12.7143 0 8.19068C0 3.66709 3.84852 0 8.59592 0C13.3433 0 17.1918 3.66709 17.1918 8.19068C17.1918 10.5154 16.1754 12.6139 14.543 14.1047L19.8488 19.1605C20.0504 19.3525 20.0504 19.6639 19.8488 19.856C19.6473 20.048 19.3205 20.048 19.1189 19.856L13.7537 14.7437ZM16.1661 8.19068C16.1661 12.1558 12.7891 15.3915 8.59592 15.3915C4.40279 15.3915 1.02577 12.1558 1.02577 8.19068C1.02577 4.22551 4.40279 0.989834 8.59592 0.989834C12.7891 0.989834 16.1661 4.22551 16.1661 8.19068Z" fill="white"/>
</svg>
